<svg xmlns="http://www.w3.org/2000/svg" viewBox="0 0 533.6 44.1"><path fill="#68737A" d="M23 38.5l-5.4 3.8-5.4-3.8c-3.8-2.6-7.1-4.9-8.8-8.3 1.4 6.4 7.7 8.8 14.2 13.9 6.6-5.1 12.8-7.5 14.2-13.9-1.7 3.4-4.9 5.7-8.8 8.3z"/><path fill="#A90533" d="M2.6 7.2v.7c.4.1.5.2.6.9v15.5c0 8.6 7 10.9 14.4 16.7C25 35.1 32 32.8 32 24.2V8.6c0-.5.2-.6.6-.7v-.7h-30z"/><g fill="#FFF"><path d="M20.5 32.4s1.2-.5 1.9-2.5c.6 1.2.4 2.4.4 2.4-.5.2-2.3.1-2.3.1zM27 21.1s.7 4-1.9 4.1c-2.5.1-3.7-3.6-3.7-3.6s.6 7.3 4.1 6.8c4-.5 1.5-7.3 1.5-7.3z"/></g><path fill="#FFF" d="M8 31.4c2.9-.7 5.2-4.1 5.8-5.4l.4-.9.3.9c0 .1.3 1.1.3 2.4v.5c1 0 1.7-.2 2.2-.6.6-.7.8-1.9.6-3.8-.1-.9-.5-2.4-.8-3.7-.2-.7-.3-1.3-.4-1.7-.6-2.8.1-4.6.8-5.5.1-.2.2-.3.3-.4-2 .7-3.7 1.7-5.5 3.5l1.2 1.4.5-.5c.5 1.8.1 3.4.1 3.4-.6-1-1.4-1.8-1.4-1.8l.3-.6-1.1-1.3-.1-.1c-1.4 1.9-1.8 3.4-1.8 3.4l1 .9.6.5.2-.5c1 1.9.1 3.8.1 3.8-.2-.7-.9-1.6-.9-1.6l.3-.9-1.4-1.3c-1.5 4.7-3.5 6.2-3.5 6.2s2.2-.4 3.4-.8c0-.2-.1 2.3-1.5 4.5z"/><path fill="#FFF" d="M29.8 14.6l-3.5.1c0 .4-.1.8-.2 1.2.3 1.4.1 2.2.1 2.2-.6-1.3-1-1.7-1-1.7-3.2-1.4-4.9 1.8-4.8 3.8.2 1.7.8 3.9 1.2 7.4.4 3-1.1 4.2-2.8 4.5h-.1c-.3 0-.6.1-.9 0h-.5c-1.3-.1-4.3-.6-7.4-.7 1.8-1.1 3.2-2.9 4-4.2 0 .4.1.8.1 1.3V29.7h.4c1.4.1 2.4-.1 3.1-.8.8-.8 1.1-2.2.8-4.4-.1-1-.5-2.4-.8-3.7-.2-.8-.4-1.4-.5-1.8-.5-2.6.1-4.1.7-5 .5-.7 1.1-1.2 1.8-1.4L20.7 9h.4l-.8 3.5c.2 0 .4-.1.6-.1l1-3.2h.4l-.7 3.1c1.1-.1 2.2-.2 3.5-.3.2.1.4.3.6.6l3.3-1 .1.4-3.1 1.1c0 .1.1.1.1.2l3.5-.4.1.4-3.4.7v.2l3.5.1v.3zm-10 1.6c.7-.5 1.9-.9 3-.8.3 0 .5-.1.2-.2-.8-.4-2.8-.3-3.5.2-1.1.7-.9 2.1-.9 2.1.3-.4.6-1 1.2-1.3z"/><g fill="#68737A"><path d="M70.8 9.6h-8.4v7.7h8.3v2.4h-8.3v9h9.9V31H59.1V7.2h11.7v2.4zM74.8 31V6h3.1v25h-3.1zM90 16.7c-1.2-.8-2.2-1.1-3.1-1.1-1.1 0-2.5.5-2.5 1.9s1.6 2.1 3.5 3.6c2.2 1.7 3.6 3.1 3.6 5.4 0 2.9-2.8 4.8-5.9 4.8-1.9 0-4.1-.8-5.2-2.1l1.5-1.7c1 .9 2.3 1.7 3.7 1.7 1.4 0 2.9-.7 2.9-2.4 0-2-1.8-2.8-3.4-4-1.9-1.4-3.6-2.5-3.6-4.9 0-2.7 2.6-4.4 5.6-4.4 1.7 0 3.3.7 4.2 1.6L90 16.7zM93.2 22.3c0-5.5 4.1-8.7 8.4-8.7 4.3 0 8.4 3.2 8.4 8.7 0 5.3-3.4 9.1-8.4 9.1-5.1 0-8.4-3.9-8.4-9.1zm3.3 0c0 3.2 1.1 6.9 5.1 6.9 4 0 5.1-3.7 5.1-6.9 0-3.1-1.3-6.5-5.1-6.5-3.9-.1-5.1 3.4-5.1 6.5zM116 16.1c1.6-1.7 4-2.5 5.8-2.5 3.9 0 6 2.2 6 6.5V31h-3.1V20.7c0-3.2-1.4-4.9-4.1-4.9-2.4 0-4.6 1.7-4.6 4.9V31h-3.1V14h3v2.1zM148.9 10.9c-1.2-.8-2.7-1.7-4.1-1.7-2.4 0-3.7 1.4-3.7 3.2 0 1.7 1.5 3 4.5 5.2 3.3 2.4 5.2 4.5 5.2 7.6 0 3.8-3.6 6.2-7.4 6.2-2.3 0-5-.8-6.7-2.5l1.5-2c1.4 1 2.9 2.1 5.2 2.1 2.3 0 4.1-1.3 4.1-3.9 0-3-3.6-4.9-5.5-6.3-2-1.5-4.2-3-4.2-6.3 0-3.2 3.1-5.6 6.8-5.6 2.5 0 4.5.9 5.9 2.4l-1.6 1.6zM154.1 27c1.2 0 2.2 1 2.2 2.2 0 1.1-1 2.2-2.1 2.2-1.2 0-2.2-1-2.2-2.2-.1-1.2.9-2.2 2.1-2.2zM176.5 9.6H168v9h8.2V21H168v10h-3.3V7.2h11.7v2.4zM179.9 31V6h3.1v25h-3.1zM185.8 22.3c0-5.5 4.1-8.7 8.4-8.7 4.3 0 8.4 3.2 8.4 8.7 0 5.3-3.4 9.1-8.4 9.1s-8.4-3.9-8.4-9.1zm3.3 0c0 3.2 1.1 6.9 5.1 6.9 4 0 5.1-3.7 5.1-6.9 0-3.1-1.3-6.5-5.1-6.5-3.9-.1-5.1 3.4-5.1 6.5zM206.2 13.6c1.7 4.3 3.5 8.7 5.2 13.8h.1c1.8-5.1 3.5-9.5 5.3-13.8l2.7.6-8.7 19.7c-1.6 3.6-3.7 5.5-6.6 5.5h-1.5v-2.2h1.2c2.1 0 3.6-.5 6-7.3l-6.7-15.5 3-.8zM233.4 28.3c-1.3 1.7-3.1 3.1-5.8 3.1-4.6 0-7.5-3.7-7.5-9.1 0-4.4 3.2-8.7 7.8-8.7 2.3 0 4.4.9 5.4 2.5h.1V6h3.1v25h-3.1v-2.7zm0-6.4c0-3.2-1.7-6.2-5.1-6.2-3.5 0-5 2.8-5 6.4 0 3.6 1.6 7.1 4.8 7.1 3.7 0 5.3-3.5 5.3-7.3zM267.6 11.2c-1.1-.9-3.7-2.1-6.2-2.1-5.9 0-9.3 4.2-9.3 9.8 0 6 4.1 10 9.3 10 2.6 0 4.6-.8 6-1.8l1.3 2c-1.6 1.1-4.4 2.2-7.5 2.2-8.5 0-12.8-5.8-12.8-12.4 0-6 4.7-12.2 13.2-12.2 3.4 0 5.8 1.2 7.3 2.4l-1.3 2.1zM269.6 22.3c0-5.5 4.1-8.7 8.4-8.7 4.3 0 8.4 3.2 8.4 8.7 0 5.3-3.4 9.1-8.4 9.1s-8.4-3.9-8.4-9.1zm3.3 0c0 3.2 1.1 6.9 5.1 6.9 4 0 5.1-3.7 5.1-6.9 0-3.1-1.3-6.5-5.1-6.5-3.8-.1-5.1 3.4-5.1 6.5zM289.4 31V6h3.1v25h-3.1zM296.6 31V6h3.1v25h-3.1zM305.8 22.7c0 3.4 2.4 6.5 5.7 6.5 1.6 0 3.5-.6 4.7-1.5l.9 1.7c-1.8 1.3-3.9 2-5.6 2-5.3 0-8.8-3.3-8.8-9.2 0-5.9 4.2-8.6 8-8.6 5.2 0 6.9 4.7 6.6 9.1h-11.5zm8.7-2.1c0-2.6-1.1-4.9-3.8-4.9-3.3 0-4.5 2.7-4.7 4.9h8.5zM335.5 30.3c0 6.5-4 9.1-8.6 9.1-2.5 0-5-.5-7-1.7l.8-2c2.1 1.2 4 1.5 6.1 1.5 3.5 0 5.6-2.2 5.6-6.7v-2.3h-.1c-1.2 1.7-3 3.1-5.7 3.1-4.7 0-7.6-3.7-7.6-9.1 0-4.4 3.3-8.7 8.1-8.7 2 0 4.2 1 5.2 2.8h.1V14h3.1v16.3zm-3.1-8.4c0-3.2-1.7-6.2-5.1-6.2-3.5 0-5 2.8-5 6.4 0 3.6 1.6 7.1 4.8 7.1 3.7 0 5.3-3.5 5.3-7.3zM341.6 22.7c0 3.4 2.4 6.5 5.7 6.5 1.6 0 3.5-.6 4.7-1.5l.9 1.7c-1.8 1.3-3.9 2-5.6 2-5.3 0-8.8-3.3-8.8-9.2 0-5.9 4.2-8.6 8-8.6 5.2 0 6.9 4.7 6.6 9.1h-11.5zm8.6-2.1c0-2.6-1.1-4.9-3.8-4.9-3.3 0-4.5 2.7-4.7 4.9h8.5zM363.7 22.3c0-5.5 4.1-8.7 8.4-8.7 4.3 0 8.4 3.2 8.4 8.7 0 5.3-3.4 9.1-8.4 9.1-5.1 0-8.4-3.9-8.4-9.1zm3.3 0c0 3.2 1.1 6.9 5.1 6.9 4 0 5.1-3.7 5.1-6.9 0-3.1-1.3-6.5-5.1-6.5-3.9-.1-5.1 3.4-5.1 6.5zM383.6 31V15.7h-2.7V14h2.7v-2.1c0-4.5 3.1-5.9 5-5.9.9 0 1.9.2 2.7.7l-.7 1.6c-.5-.1-1-.2-1.7-.2-.5 0-2.2.1-2.2 2.9v3h4.1v1.8h-4.1V31h-3.1zM427.7 31h-3.3V11.6h-.1c-1 2.8-6.3 13.3-9.5 19.4h-1.3c-3-6.1-7.9-16.2-8.8-19.4h-.1V31h-2.7V7.2h3.5c3.1 6.3 6.1 12.7 9.1 19.4 3.4-6.7 6.7-13 10-19.4h3.1V31zM433.8 22.7c0 3.4 2.4 6.5 5.7 6.5 1.6 0 3.5-.6 4.7-1.5l.9 1.7c-1.8 1.3-3.9 2-5.6 2-5.3 0-8.8-3.3-8.8-9.2 0-5.9 4.2-8.6 8-8.6 5.2 0 6.9 4.7 6.6 9.1h-11.5zm8.7-2.1c0-2.6-1.1-4.9-3.8-4.9-3.3 0-4.5 2.7-4.7 4.9h8.5zM461.1 28.3c-1.3 1.7-3.1 3.1-5.8 3.1-4.6 0-7.5-3.7-7.5-9.1 0-4.4 3.2-8.7 7.8-8.7 2.3 0 4.4.9 5.4 2.5h.1V6h3.1v25h-3.1v-2.7zm0-6.4c0-3.2-1.7-6.2-5.1-6.2-3.5 0-5 2.8-5 6.4 0 3.6 1.6 7.1 4.8 7.1 3.7 0 5.3-3.5 5.3-7.3zM467.8 8.4c0-.8.7-1.8 1.9-1.8s1.9 1 1.9 1.8c0 .9-.4 2.1-1.9 2.1-1.4-.1-1.9-1.2-1.9-2.1zm3.5 5.6v17h-3.1V14h3.1zM488.5 29.6c-1.7 1.2-3.7 1.8-5.1 1.8-8 0-9.1-6.6-9.1-8.9 0-4.2 2.8-8.9 9.2-8.9 1.7 0 3.3.4 4.5 1.4l-1 1.7c-1-.5-2.2-.9-3.5-.9-2.8 0-5.9 1.8-5.9 6.5 0 3.5 1.8 6.9 5.9 6.9 1.5 0 2.8-.4 4.1-1.2l.9 1.6zM490.5 8.4c0-.8.7-1.8 1.9-1.8s1.9 1 1.9 1.8c0 .9-.4 2.1-1.9 2.1-1.4-.1-1.9-1.2-1.9-2.1zM494 14v17h-3.1V14h3.1zM501.2 16.1c1.6-1.7 4-2.5 5.8-2.5 3.9 0 6 2.2 6 6.5V31h-3.1V20.7c0-3.2-1.4-4.9-4.1-4.9-2.4 0-4.6 1.7-4.6 4.9V31h-3.1V14h3v2.1zM518.8 22.7c0 3.4 2.4 6.5 5.7 6.5 1.6 0 3.5-.6 4.7-1.5l.9 1.7c-1.8 1.3-3.9 2-5.6 2-5.3 0-8.8-3.3-8.8-9.2 0-5.9 4.2-8.6 8-8.6 5.2 0 6.9 4.7 6.6 9.1h-11.5zm8.7-2.1c0-2.6-1.1-4.9-3.8-4.9-3.3 0-4.5 2.7-4.7 4.9h8.5z"/></g><path fill="#68737A" d="M45.1 0h.7v44.1h-.7z"/></svg>