<svg xmlns="http://www.w3.org/2000/svg" viewBox="0 0 267 60.2"><path fill="#68737A" d="M21.5 38.5l-5.4 3.8-5.4-3.8c-3.8-2.6-7.1-4.9-8.8-8.3 1.4 6.4 7.7 8.8 14.2 13.9C22.7 39 29 36.6 30.4 30.2c-1.7 3.4-5 5.7-8.9 8.3z"/><path fill="#A90533" d="M1.1 7.2v.7c.4.1.6.2.6.9v15.5c0 8.6 7 10.9 14.4 16.7 7.4-5.8 14.4-8.1 14.4-16.7V8.6c.1-.5.2-.6.6-.7v-.7h-30z"/><g fill="#FFF"><path d="M19.1 32.4s1.2-.5 1.9-2.5c.6 1.2.4 2.4.4 2.4-.6.2-2.3.1-2.3.1zM25.5 21.1s.7 4-1.9 4.1c-2.5.1-3.7-3.6-3.7-3.6s.6 7.3 4.1 6.8c4-.5 1.5-7.3 1.5-7.3z"/></g><path fill="#FFF" d="M6.5 31.4c2.9-.7 5.2-4.1 5.8-5.4l.4-.9.3.9c0 .1.3 1.1.3 2.4v.5c1 0 1.7-.2 2.2-.6.6-.7.8-1.9.6-3.8-.1-.9-.5-2.4-.8-3.7-.2-.7-.3-1.3-.4-1.7-.6-2.8.1-4.6.8-5.5.1-.2.2-.3.3-.4-2 .7-3.7 1.7-5.5 3.5l1.2 1.4.5-.5c.5 1.8.1 3.4.1 3.4-.6-1-1.4-1.8-1.4-1.8l.3-.6-1.1-1.3-.1-.1c-1.4 1.9-1.8 3.4-1.8 3.4l1 .9.7.5.2-.5c1 1.9.1 3.8.1 3.8-.2-.7-.9-1.6-.9-1.6l.3-.9-1.4-1.3c-1.5 4.7-3.5 6.2-3.5 6.2s2.2-.4 3.4-.8c-.1-.2-.1 2.3-1.6 4.5z"/><path fill="#FFF" d="M28.3 14.6l-3.5.1c0 .4-.1.8-.2 1.2.3 1.4.1 2.2.1 2.2-.6-1.3-1-1.7-1-1.7-3.2-1.4-4.9 1.8-4.8 3.8.2 1.7.8 3.9 1.2 7.4.4 3-1.1 4.2-2.8 4.5h-.1c-.3 0-.6.1-.9 0h-.5c-1.3-.2-4.3-.7-7.4-.8 1.8-1.1 3.2-2.9 4-4.2 0 .4.1.8.1 1.3V29.6h.4c1.4.1 2.4-.1 3.1-.8.8-.8 1.1-2.2.8-4.4-.1-1-.5-2.4-.8-3.7-.2-.7-.3-1.3-.4-1.7-.5-2.6.1-4.1.7-5 .5-.7 1.1-1.2 1.8-1.4L19.3 9h.4l-.8 3.5c.2 0 .4-.1.6-.1l1-3.2h.4l-.7 3.1c1.1-.1 2.2-.2 3.5-.3.2.1.4.3.6.6l3.3-1 .1.4-3.2 1.2c0 .1.1.1.1.2l3.5-.4.1.4-3.4.7v.2l3.5.1v.2zm-10 1.6c.7-.5 1.9-.9 3-.8.3 0 .5-.1.2-.2-.8-.4-2.8-.3-3.5.2-1.1.7-.9 2.1-.9 2.1.3-.4.7-1 1.2-1.3z"/><path fill="#68737A" d="M43.6 0h.7v60.2h-.7z"/><g><g fill="#68737A"><path d="M66.2 9H60v5.7h6.1v1.8H60V23h7.3v1.8h-9.7V7.2h8.6V9zM69.1 24.7V6.3h2.3v18.4h-2.3zM80.3 14.2c-.9-.6-1.6-.8-2.3-.8-.8 0-1.8.4-1.8 1.4s1.2 1.6 2.6 2.7c1.6 1.2 2.7 2.3 2.7 4 0 2.1-2.1 3.5-4.4 3.5-1.4 0-3-.6-3.9-1.6l1.1-1.3c.7.7 1.7 1.3 2.7 1.3 1.1 0 2.1-.6 2.1-1.8 0-1.5-1.3-2.1-2.5-2.9-1.4-1-2.7-1.9-2.7-3.6 0-2 2-3.2 4.2-3.2 1.2 0 2.4.5 3.1 1.2l-.9 1.1zM82.7 18.3c0-4.1 3-6.4 6.2-6.4s6.2 2.4 6.2 6.4c0 3.9-2.5 6.7-6.2 6.7s-6.2-2.8-6.2-6.7zm2.5 0c0 2.4.8 5.1 3.7 5.1 3 0 3.8-2.8 3.8-5.1s-.9-4.8-3.8-4.8c-2.8 0-3.7 2.6-3.7 4.8zM99.5 13.8c1.2-1.3 3-1.9 4.3-1.9 2.9 0 4.4 1.6 4.4 4.8v8.1H106v-7.6c0-2.4-1-3.6-3-3.6-1.8 0-3.4 1.2-3.4 3.6v7.5h-2.3V12.2h2.2v1.6zM123.8 9.9c-.9-.6-2-1.3-3-1.3-1.8 0-2.7 1-2.7 2.4 0 1.3 1.1 2.2 3.3 3.8 2.4 1.8 3.8 3.4 3.8 5.6 0 2.8-2.6 4.6-5.4 4.6-1.7 0-3.7-.6-4.9-1.8l1.1-1.5c1 .7 2.2 1.5 3.8 1.5 1.7 0 3.1-.9 3.1-2.9 0-2.2-2.6-3.6-4.1-4.7-1.5-1.1-3.1-2.2-3.1-4.7 0-2.4 2.3-4.1 5-4.1 1.8 0 3.4.7 4.3 1.8l-1.2 1.3zM127.6 21.8c.9 0 1.6.8 1.6 1.6s-.8 1.6-1.6 1.6c-.9 0-1.6-.7-1.6-1.6 0-.9.8-1.6 1.6-1.6zM144.1 9h-6.2v6.7h6.1v1.8h-6.1v7.4h-2.4V7.2h8.6V9zM146.7 24.7V6.3h2.3v18.4h-2.3zM151 18.3c0-4.1 3-6.4 6.2-6.4s6.2 2.4 6.2 6.4c0 3.9-2.5 6.7-6.2 6.7s-6.2-2.8-6.2-6.7zm2.4 0c0 2.4.8 5.1 3.7 5.1 3 0 3.8-2.8 3.8-5.1s-.9-4.8-3.8-4.8c-2.7 0-3.7 2.6-3.7 4.8zM166.1 12c1.3 3.2 2.6 6.4 3.8 10.2h.1c1.3-3.8 2.6-7 3.9-10.2l2 .5-6.4 14.5c-1.2 2.7-2.7 4.1-4.9 4.1h-1.1v-1.6h.9c1.6 0 2.7-.4 4.4-5.4l-4.9-11.4 2.2-.7zM186.1 22.7c-.9 1.2-2.3 2.3-4.3 2.3-3.4 0-5.5-2.7-5.5-6.7 0-3.3 2.4-6.4 5.8-6.4 1.7 0 3.2.7 4 1.9V6.3h2.3v18.4h-2.3v-2zm0-4.6c0-2.4-1.3-4.6-3.7-4.6-2.6 0-3.7 2.1-3.7 4.7 0 2.7 1.2 5.2 3.5 5.2 2.7 0 3.9-2.6 3.9-5.3zM70.8 35.7c-.8-.7-2.7-1.5-4.6-1.5-4.3 0-6.9 3.1-6.9 7.2 0 4.4 3.1 7.4 6.9 7.4 1.9 0 3.4-.6 4.4-1.3l1 1.5c-1.2.8-3.3 1.6-5.5 1.6-6.3 0-9.4-4.3-9.4-9.1 0-4.4 3.5-9 9.7-9 2.5 0 4.3.9 5.4 1.8l-1 1.4zM72.3 43.8c0-4.1 3-6.4 6.2-6.4s6.2 2.4 6.2 6.4c0 3.9-2.5 6.7-6.2 6.7s-6.2-2.8-6.2-6.7zm2.5 0c0 2.4.8 5.1 3.7 5.1 3 0 3.8-2.8 3.8-5.1s-.9-4.8-3.8-4.8c-2.8 0-3.7 2.6-3.7 4.8zM86.9 50.2V31.8h2.3v18.4h-2.3zM92.2 50.2V31.8h2.3v18.4h-2.3zM99 44.1c0 2.5 1.8 4.8 4.2 4.8 1.2 0 2.6-.4 3.4-1.1l.7 1.2c-1.3.9-2.9 1.5-4.2 1.5-3.9 0-6.5-2.4-6.5-6.8 0-4.3 3.1-6.3 5.9-6.3 3.8 0 5.1 3.4 4.8 6.7H99zm6.4-1.5c0-2-.8-3.6-2.8-3.6-2.4 0-3.4 2-3.4 3.6h6.2zM120.9 49.8c0 4.8-3 6.7-6.4 6.7-1.9 0-3.7-.3-5.2-1.3l.6-1.5c1.5.9 2.9 1.1 4.5 1.1 2.6 0 4.2-1.7 4.2-4.9v-1.7c-.9 1.2-2.2 2.3-4.2 2.3-3.5 0-5.6-2.7-5.6-6.7 0-3.3 2.4-6.4 6-6.4 1.5 0 3.1.8 3.8 2v-1.7h2.3v12.1zm-2.3-6.2c0-2.4-1.3-4.6-3.7-4.6-2.6 0-3.7 2.1-3.7 4.7 0 2.7 1.2 5.2 3.5 5.2 2.8 0 3.9-2.6 3.9-5.3zM125.4 44.1c0 2.5 1.8 4.8 4.2 4.8 1.2 0 2.6-.4 3.4-1.1l.7 1.2c-1.3.9-2.9 1.5-4.2 1.5-3.9 0-6.5-2.4-6.5-6.8 0-4.3 3.1-6.3 5.9-6.3 3.8 0 5.1 3.4 4.8 6.7h-8.3zm6.4-1.5c0-2-.8-3.6-2.8-3.6-2.4 0-3.4 2-3.4 3.6h6.2zM141.7 43.8c0-4.1 3-6.4 6.2-6.4s6.2 2.4 6.2 6.4c0 3.9-2.5 6.7-6.2 6.7-3.8 0-6.2-2.8-6.2-6.7zm2.4 0c0 2.4.8 5.1 3.7 5.1 3 0 3.8-2.8 3.8-5.1s-.9-4.8-3.8-4.8c-2.8 0-3.7 2.6-3.7 4.8zM156.4 50.2V39h-2v-1.3h2v-1.5c0-3.4 2.3-4.4 3.7-4.4.7 0 1.4.1 2 .5l-.5 1.2c-.4-.1-.7-.2-1.2-.2-.4 0-1.7.1-1.7 2.1v2.3h3V39h-3v11.2h-2.3zM188.8 50.2h-2.4V36h-.1c-.7 2.1-4.7 9.8-7 14.3h-1c-2.2-4.5-5.8-12-6.5-14.3v14.3h-2V32.7h2.6c2.3 4.7 4.5 9.3 6.7 14.3 2.5-4.9 5-9.6 7.4-14.3h2.3v17.5zM193.4 44.1c0 2.5 1.8 4.8 4.2 4.8 1.2 0 2.6-.4 3.4-1.1l.7 1.2c-1.3.9-2.9 1.5-4.2 1.5-3.9 0-6.5-2.4-6.5-6.8 0-4.3 3.1-6.3 5.9-6.3 3.8 0 5.1 3.4 4.8 6.7h-8.3zm6.4-1.5c0-2-.8-3.6-2.8-3.6-2.4 0-3.4 2-3.4 3.6h6.2zM213.5 48.2c-.9 1.2-2.3 2.3-4.3 2.3-3.4 0-5.5-2.7-5.5-6.7 0-3.3 2.4-6.4 5.8-6.4 1.7 0 3.2.7 4 1.9v-7.4h2.3v18.4h-2.3v-2.1zm0-4.6c0-2.4-1.3-4.6-3.7-4.6-2.6 0-3.7 2.1-3.7 4.7 0 2.7 1.2 5.2 3.5 5.2 2.7 0 3.9-2.6 3.9-5.3zM218.5 33.6c0-.6.5-1.3 1.4-1.3.9 0 1.4.7 1.4 1.3 0 .7-.3 1.5-1.4 1.5-1.1 0-1.4-.8-1.4-1.5zm2.5 4.1v12.5h-2.3V37.7h2.3zM233.7 49.2c-1.2.9-2.7 1.3-3.8 1.3-5.9 0-6.7-4.9-6.7-6.6 0-3.1 2.1-6.5 6.8-6.5 1.3 0 2.4.3 3.4 1l-.8 1.3c-.7-.4-1.7-.7-2.6-.7-2.1 0-4.4 1.4-4.4 4.8 0 2.6 1.3 5.1 4.4 5.1 1.1 0 2.1-.3 3.1-.9l.6 1.2zM235.2 33.6c0-.6.5-1.3 1.4-1.3.9 0 1.4.7 1.4 1.3 0 .7-.3 1.5-1.4 1.5-1.1 0-1.4-.8-1.4-1.5zm2.6 4.1v12.5h-2.3V37.7h2.3zM243.1 39.3c1.2-1.3 3-1.9 4.3-1.9 2.9 0 4.4 1.6 4.4 4.8v8.1h-2.3v-7.6c0-2.4-1-3.6-3-3.6-1.8 0-3.4 1.2-3.4 3.6v7.5h-2.3V37.7h2.2v1.6zM256.1 44.1c0 2.5 1.8 4.8 4.2 4.8 1.2 0 2.6-.4 3.4-1.1l.7 1.2c-1.3.9-2.9 1.5-4.2 1.5-3.9 0-6.5-2.4-6.5-6.8 0-4.3 3.1-6.3 5.9-6.3 3.8 0 5.1 3.4 4.8 6.7h-8.3zm6.4-1.5c0-2-.8-3.6-2.8-3.6-2.4 0-3.4 2-3.4 3.6h6.2z"/></g></g></svg>