<svg version="1.1" id="Layer_1" xmlns="http://www.w3.org/2000/svg" xmlns:xlink="http://www.w3.org/1999/xlink" x="0px" y="0px"
	 viewBox="0 0 267 60.2" enable-background="new 0 0 267 60.2" xml:space="preserve">
<g>
	<path fill="#68737A" d="M21.5,38.5l-5.4,3.8l-5.4-3.8c-3.8-2.6-7.1-4.9-8.8-8.3c1.4,6.4,7.7,8.8,14.2,13.9
		C22.7,39,29,36.6,30.4,30.2C28.7,33.6,25.4,35.9,21.5,38.5z"/>
	<path fill="#A90533" d="M1.1,7.2v0.7C1.5,8,1.7,8.1,1.7,8.8v15.5c0,8.6,7,10.9,14.4,16.7c7.4-5.8,14.4-8.1,14.4-16.7V8.6
		c0.1-0.5,0.2-0.6,0.6-0.7V7.2H1.1z"/>
	<g>
		<g>
			<g>
				<path fill="#FFFFFF" d="M19.1,32.4c0,0,1.2-0.5,1.9-2.5c0.6,1.2,0.4,2.4,0.4,2.4C20.8,32.5,19.1,32.4,19.1,32.4z"/>
				<path fill="#FFFFFF" d="M25.5,21.1c0,0,0.7,4-1.9,4.1c-2.5,0.1-3.7-3.6-3.7-3.6s0.6,7.3,4.1,6.8C28,27.9,25.5,21.1,25.5,21.1z"
					/>
			</g>
		</g>
		<path fill="#FFFFFF" d="M6.5,31.4C6.5,31.4,6.5,31.4,6.5,31.4c2.9-0.7,5.2-4.1,5.8-5.4l0.4-0.9l0.3,0.9c0,0.1,0.3,1.1,0.3,2.4
			c0,0.1,0,0.3,0,0.5c1,0,1.7-0.2,2.2-0.6c0.6-0.7,0.8-1.9,0.6-3.8c-0.1-0.9-0.5-2.4-0.8-3.7c-0.2-0.7-0.3-1.3-0.4-1.7
			c-0.6-2.8,0.1-4.6,0.8-5.5c0.1-0.2,0.2-0.3,0.3-0.4c-2,0.7-3.7,1.7-5.5,3.5l1.2,1.4l0.5-0.5c0.5,1.8,0.1,3.4,0.1,3.4
			c-0.6-1-1.4-1.8-1.4-1.8l0.3-0.6l-1.1-1.3l-0.1-0.1c-1.4,1.9-1.8,3.4-1.8,3.4l1,0.9L9.9,22l0.2-0.5c1,1.9,0.1,3.8,0.1,3.8
			c-0.2-0.7-0.9-1.6-0.9-1.6l0.3-0.9l-1.4-1.3c-1.5,4.7-3.5,6.2-3.5,6.2s2.2-0.4,3.4-0.8C8,26.7,8,29.2,6.5,31.4z"/>
		<path fill="#FFFFFF" d="M28.3,14.6l-3.5,0.1c0,0.4-0.1,0.8-0.2,1.2c0.3,1.4,0.1,2.2,0.1,2.2c-0.6-1.3-1-1.7-1-1.7
			c-3.2-1.4-4.9,1.8-4.8,3.8c0.2,1.7,0.8,3.9,1.2,7.4c0.4,3-1.1,4.2-2.8,4.5c0,0-0.1,0-0.1,0c0,0,0,0,0,0c-0.3,0-0.6,0.1-0.9,0
			c0,0,0,0,0,0c0,0-0.1,0-0.1,0c-0.1,0-0.3,0-0.4,0c-1.3-0.2-4.3-0.7-7.4-0.8c1.8-1.1,3.2-2.9,4-4.2c0,0.4,0.1,0.8,0.1,1.3
			c0,0.2,0,0.5,0,0.8l0,0.4l0.4,0c1.4,0.1,2.4-0.1,3.1-0.8c0.8-0.8,1.1-2.2,0.8-4.4c-0.1-1-0.5-2.4-0.8-3.7
			c-0.2-0.7-0.3-1.3-0.4-1.7c-0.5-2.6,0.1-4.1,0.7-5c0.5-0.7,1.1-1.2,1.8-1.4c0,0,0,0,0,0l1.2-3.6h0.4l-0.8,3.5
			c0.2,0,0.4-0.1,0.6-0.1l1-3.2h0.4l-0.7,3.1c1.1-0.1,2.2-0.2,3.5-0.3c0.2,0.1,0.4,0.3,0.6,0.6l3.3-1l0.1,0.4l-3.2,1.2
			c0,0.1,0.1,0.1,0.1,0.2l3.5-0.4l0.1,0.4l-3.4,0.7c0,0.1,0,0.1,0,0.2l3.5,0.1L28.3,14.6z M18.3,16.2c0.7-0.5,1.9-0.9,3-0.8
			c0.3,0,0.5-0.1,0.2-0.2c-0.8-0.4-2.8-0.3-3.5,0.2c-1.1,0.7-0.9,2.1-0.9,2.1C17.4,17.1,17.8,16.5,18.3,16.2z"/>
	</g>
</g>
<rect x="43.6" fill="#68737A" width="0.7" height="60.2"/>
<g>
	<g>
		<path fill="#68737A" d="M66.2,9H60v5.7h6.1v1.8H60V23h7.3v1.8h-9.7V7.2h8.6V9z"/>
		<path fill="#68737A" d="M69.1,24.7V6.3h2.3v18.4H69.1z"/>
		<path fill="#68737A" d="M80.3,14.2c-0.9-0.6-1.6-0.8-2.3-0.8c-0.8,0-1.8,0.4-1.8,1.4s1.2,1.6,2.6,2.7c1.6,1.2,2.7,2.3,2.7,4
			c0,2.1-2.1,3.5-4.4,3.5c-1.4,0-3-0.6-3.9-1.6l1.1-1.3c0.7,0.7,1.7,1.3,2.7,1.3c1.1,0,2.1-0.6,2.1-1.8c0-1.5-1.3-2.1-2.5-2.9
			c-1.4-1-2.7-1.9-2.7-3.6c0-2,2-3.2,4.2-3.2c1.2,0,2.4,0.5,3.1,1.2L80.3,14.2z"/>
		<path fill="#68737A" d="M82.7,18.3c0-4.1,3-6.4,6.2-6.4c3.2,0,6.2,2.4,6.2,6.4c0,3.9-2.5,6.7-6.2,6.7C85.2,25,82.7,22.2,82.7,18.3
			z M85.2,18.3c0,2.4,0.8,5.1,3.7,5.1c3,0,3.8-2.8,3.8-5.1c0-2.3-0.9-4.8-3.8-4.8C86.1,13.5,85.2,16.1,85.2,18.3z"/>
		<path fill="#68737A" d="M99.5,13.8c1.2-1.3,3-1.9,4.3-1.9c2.9,0,4.4,1.6,4.4,4.8v8.1H106v-7.6c0-2.4-1-3.6-3-3.6
			c-1.8,0-3.4,1.2-3.4,3.6v7.5h-2.3V12.2h2.2V13.8z"/>
		<path fill="#68737A" d="M123.8,9.9c-0.9-0.6-2-1.3-3-1.3c-1.8,0-2.7,1-2.7,2.4c0,1.3,1.1,2.2,3.3,3.8c2.4,1.8,3.8,3.4,3.8,5.6
			c0,2.8-2.6,4.6-5.4,4.6c-1.7,0-3.7-0.6-4.9-1.8l1.1-1.5c1,0.7,2.2,1.5,3.8,1.5c1.7,0,3.1-0.9,3.1-2.9c0-2.2-2.6-3.6-4.1-4.7
			c-1.5-1.1-3.1-2.2-3.1-4.7c0-2.4,2.3-4.1,5-4.1c1.8,0,3.4,0.7,4.3,1.8L123.8,9.9z"/>
		<path fill="#68737A" d="M127.6,21.8c0.9,0,1.6,0.8,1.6,1.6c0,0.8-0.8,1.6-1.6,1.6c-0.9,0-1.6-0.7-1.6-1.6
			C126,22.5,126.8,21.8,127.6,21.8z"/>
		<path fill="#68737A" d="M144.1,9h-6.2v6.7h6.1v1.8h-6.1v7.4h-2.4V7.2h8.6V9z"/>
		<path fill="#68737A" d="M146.7,24.7V6.3h2.3v18.4H146.7z"/>
		<path fill="#68737A" d="M151,18.3c0-4.1,3-6.4,6.2-6.4c3.2,0,6.2,2.4,6.2,6.4c0,3.9-2.5,6.7-6.2,6.7C153.5,25,151,22.2,151,18.3z
			 M153.4,18.3c0,2.4,0.8,5.1,3.7,5.1c3,0,3.8-2.8,3.8-5.1c0-2.3-0.9-4.8-3.8-4.8C154.4,13.5,153.4,16.1,153.4,18.3z"/>
		<path fill="#68737A" d="M166.1,12c1.3,3.2,2.6,6.4,3.8,10.2h0.1c1.3-3.8,2.6-7,3.9-10.2l2,0.5l-6.4,14.5c-1.2,2.7-2.7,4.1-4.9,4.1
			h-1.1v-1.6h0.9c1.6,0,2.7-0.4,4.4-5.4l-4.9-11.4L166.1,12z"/>
		<path fill="#68737A" d="M186.1,22.7L186.1,22.7c-0.9,1.2-2.3,2.3-4.3,2.3c-3.4,0-5.5-2.7-5.5-6.7c0-3.3,2.4-6.4,5.8-6.4
			c1.7,0,3.2,0.7,4,1.9h0V6.3h2.3v18.4h-2.3V22.7z M186.1,18.1c0-2.4-1.3-4.6-3.7-4.6c-2.6,0-3.7,2.1-3.7,4.7c0,2.7,1.2,5.2,3.5,5.2
			C184.9,23.4,186.1,20.8,186.1,18.1z"/>
		<path fill="#68737A" d="M70.8,35.7c-0.8-0.7-2.7-1.5-4.6-1.5c-4.3,0-6.9,3.1-6.9,7.2c0,4.4,3.1,7.4,6.9,7.4c1.9,0,3.4-0.6,4.4-1.3
			l1,1.5c-1.2,0.8-3.3,1.6-5.5,1.6c-6.3,0-9.4-4.3-9.4-9.1c0-4.4,3.5-9,9.7-9c2.5,0,4.3,0.9,5.4,1.8L70.8,35.7z"/>
		<path fill="#68737A" d="M72.3,43.8c0-4.1,3-6.4,6.2-6.4c3.2,0,6.2,2.4,6.2,6.4c0,3.9-2.5,6.7-6.2,6.7
			C74.8,50.5,72.3,47.7,72.3,43.8z M74.8,43.8c0,2.4,0.8,5.1,3.7,5.1c3,0,3.8-2.8,3.8-5.1c0-2.3-0.9-4.8-3.8-4.8
			C75.7,39,74.8,41.6,74.8,43.8z"/>
		<path fill="#68737A" d="M86.9,50.2V31.8h2.3v18.4H86.9z"/>
		<path fill="#68737A" d="M92.2,50.2V31.8h2.3v18.4H92.2z"/>
		<path fill="#68737A" d="M99,44.1c0,2.5,1.8,4.8,4.2,4.8c1.2,0,2.6-0.4,3.4-1.1l0.7,1.2c-1.3,0.9-2.9,1.5-4.2,1.5
			c-3.9,0-6.5-2.4-6.5-6.8c0-4.3,3.1-6.3,5.9-6.3c3.8,0,5.1,3.4,4.8,6.7H99z M105.4,42.6c0-2-0.8-3.6-2.8-3.6c-2.4,0-3.4,2-3.4,3.6
			H105.4z"/>
		<path fill="#68737A" d="M120.9,49.8c0,4.8-3,6.7-6.4,6.7c-1.9,0-3.7-0.3-5.2-1.3l0.6-1.5c1.5,0.9,2.9,1.1,4.5,1.1
			c2.6,0,4.2-1.7,4.2-4.9v-1.7h0c-0.9,1.2-2.2,2.3-4.2,2.3c-3.5,0-5.6-2.7-5.6-6.7c0-3.3,2.4-6.4,6-6.4c1.5,0,3.1,0.8,3.8,2h0v-1.7
			h2.3V49.8z M118.6,43.6c0-2.4-1.3-4.6-3.7-4.6c-2.6,0-3.7,2.1-3.7,4.7c0,2.7,1.2,5.2,3.5,5.2C117.5,48.9,118.6,46.3,118.6,43.6z"
			/>
		<path fill="#68737A" d="M125.4,44.1c0,2.5,1.8,4.8,4.2,4.8c1.2,0,2.6-0.4,3.4-1.1l0.7,1.2c-1.3,0.9-2.9,1.5-4.2,1.5
			c-3.9,0-6.5-2.4-6.5-6.8c0-4.3,3.1-6.3,5.9-6.3c3.8,0,5.1,3.4,4.8,6.7H125.4z M131.8,42.6c0-2-0.8-3.6-2.8-3.6
			c-2.4,0-3.4,2-3.4,3.6H131.8z"/>
		<path fill="#68737A" d="M141.7,43.8c0-4.1,3-6.4,6.2-6.4c3.2,0,6.2,2.4,6.2,6.4c0,3.9-2.5,6.7-6.2,6.7
			C144.1,50.5,141.7,47.7,141.7,43.8z M144.1,43.8c0,2.4,0.8,5.1,3.7,5.1c3,0,3.8-2.8,3.8-5.1c0-2.3-0.9-4.8-3.8-4.8
			C145,39,144.1,41.6,144.1,43.8z"/>
		<path fill="#68737A" d="M156.4,50.2V39h-2v-1.3h2v-1.5c0-3.4,2.3-4.4,3.7-4.4c0.7,0,1.4,0.1,2,0.5l-0.5,1.2
			c-0.4-0.1-0.7-0.2-1.2-0.2c-0.4,0-1.7,0.1-1.7,2.1v2.3h3V39h-3v11.2H156.4z"/>
		<path fill="#68737A" d="M188.8,50.2h-2.4V36h-0.1c-0.7,2.1-4.7,9.8-7,14.3h-1c-2.2-4.5-5.8-12-6.5-14.3h0v14.3h-2V32.7h2.6
			c2.3,4.7,4.5,9.3,6.7,14.3c2.5-4.9,5-9.6,7.4-14.3h2.3V50.2z"/>
		<path fill="#68737A" d="M193.4,44.1c0,2.5,1.8,4.8,4.2,4.8c1.2,0,2.6-0.4,3.4-1.1l0.7,1.2c-1.3,0.9-2.9,1.5-4.2,1.5
			c-3.9,0-6.5-2.4-6.5-6.8c0-4.3,3.1-6.3,5.9-6.3c3.8,0,5.1,3.4,4.8,6.7H193.4z M199.8,42.6c0-2-0.8-3.6-2.8-3.6
			c-2.4,0-3.4,2-3.4,3.6H199.8z"/>
		<path fill="#68737A" d="M213.5,48.2L213.5,48.2c-0.9,1.2-2.3,2.3-4.3,2.3c-3.4,0-5.5-2.7-5.5-6.7c0-3.3,2.4-6.4,5.8-6.4
			c1.7,0,3.2,0.7,4,1.9h0v-7.4h2.3v18.4h-2.3V48.2z M213.5,43.6c0-2.4-1.3-4.6-3.7-4.6c-2.6,0-3.7,2.1-3.7,4.7
			c0,2.7,1.2,5.2,3.5,5.2C212.3,48.9,213.5,46.3,213.5,43.6z"/>
		<path fill="#68737A" d="M218.5,33.6c0-0.6,0.5-1.3,1.4-1.3c0.9,0,1.4,0.7,1.4,1.3c0,0.7-0.3,1.5-1.4,1.5
			C218.8,35.1,218.5,34.3,218.5,33.6z M221,37.7v12.5h-2.3V37.7H221z"/>
		<path fill="#68737A" d="M233.7,49.2c-1.2,0.9-2.7,1.3-3.8,1.3c-5.9,0-6.7-4.9-6.7-6.6c0-3.1,2.1-6.5,6.8-6.5c1.3,0,2.4,0.3,3.4,1
			l-0.8,1.3c-0.7-0.4-1.7-0.7-2.6-0.7c-2.1,0-4.4,1.4-4.4,4.8c0,2.6,1.3,5.1,4.4,5.1c1.1,0,2.1-0.3,3.1-0.9L233.7,49.2z"/>
		<path fill="#68737A" d="M235.2,33.6c0-0.6,0.5-1.3,1.4-1.3c0.9,0,1.4,0.7,1.4,1.3c0,0.7-0.3,1.5-1.4,1.5
			C235.5,35.1,235.2,34.3,235.2,33.6z M237.8,37.7v12.5h-2.3V37.7H237.8z"/>
		<path fill="#68737A" d="M243.1,39.3c1.2-1.3,3-1.9,4.3-1.9c2.9,0,4.4,1.6,4.4,4.8v8.1h-2.3v-7.6c0-2.4-1-3.6-3-3.6
			c-1.8,0-3.4,1.2-3.4,3.6v7.5h-2.3V37.7h2.2V39.3z"/>
		<path fill="#68737A" d="M256.1,44.1c0,2.5,1.8,4.8,4.2,4.8c1.2,0,2.6-0.4,3.4-1.1l0.7,1.2c-1.3,0.9-2.9,1.5-4.2,1.5
			c-3.9,0-6.5-2.4-6.5-6.8c0-4.3,3.1-6.3,5.9-6.3c3.8,0,5.1,3.4,4.8,6.7H256.1z M262.5,42.6c0-2-0.8-3.6-2.8-3.6
			c-2.4,0-3.4,2-3.4,3.6H262.5z"/>
	</g>
</g>
</svg>
