<?xml version="1.0" encoding="utf-8"?>
<!-- Generator: Adobe Illustrator 20.0.0, SVG Export Plug-In . SVG Version: 6.00 Build 0)  -->
<!DOCTYPE svg PUBLIC "-//W3C//DTD SVG 1.1//EN" "http://www.w3.org/Graphics/SVG/1.1/DTD/svg11.dtd">
<svg version="1.1" id="Layer_1" xmlns="http://www.w3.org/2000/svg" xmlns:xlink="http://www.w3.org/1999/xlink" x="0px" y="0px"
	 viewBox="0 0 533.6 44.1" enable-background="new 0 0 533.6 44.1" xml:space="preserve">
<g>
	<path fill="#68737A" d="M23,38.5l-5.4,3.8l-5.4-3.8c-3.8-2.6-7.1-4.9-8.8-8.3c1.4,6.4,7.7,8.8,14.2,13.9
		c6.6-5.1,12.8-7.5,14.2-13.9C30.1,33.6,26.9,35.9,23,38.5z"/>
	<path fill="#A90533" d="M2.6,7.2v0.7C3,8,3.1,8.1,3.2,8.8v15.5c0,8.6,7,10.9,14.4,16.7C25,35.1,32,32.8,32,24.2V8.6
		C32,8.1,32.2,8,32.6,7.9V7.2H2.6z"/>
	<g>
		<g>
			<g>
				<path fill="#FFFFFF" d="M20.5,32.4c0,0,1.2-0.5,1.9-2.5c0.6,1.2,0.4,2.4,0.4,2.4C22.3,32.5,20.5,32.4,20.5,32.4z"/>
				<path fill="#FFFFFF" d="M27,21.1c0,0,0.7,4-1.9,4.1c-2.5,0.1-3.7-3.6-3.7-3.6s0.6,7.3,4.1,6.8C29.5,27.9,27,21.1,27,21.1z"/>
			</g>
		</g>
		<path fill="#FFFFFF" d="M8,31.4C8,31.4,8,31.4,8,31.4c2.9-0.7,5.2-4.1,5.8-5.4l0.4-0.9l0.3,0.9c0,0.1,0.3,1.1,0.3,2.4
			c0,0.1,0,0.3,0,0.5c1,0,1.7-0.2,2.2-0.6c0.6-0.7,0.8-1.9,0.6-3.8c-0.1-0.9-0.5-2.4-0.8-3.7c-0.2-0.7-0.3-1.3-0.4-1.7
			c-0.6-2.8,0.1-4.6,0.8-5.5c0.1-0.2,0.2-0.3,0.3-0.4c-2,0.7-3.7,1.7-5.5,3.5l1.2,1.4l0.5-0.5c0.5,1.8,0.1,3.4,0.1,3.4
			c-0.6-1-1.4-1.8-1.4-1.8l0.3-0.6l-1.1-1.3l-0.1-0.1c-1.4,1.9-1.8,3.4-1.8,3.4l1,0.9l0.6,0.5l0.2-0.5c1,1.9,0.1,3.8,0.1,3.8
			c-0.2-0.7-0.9-1.6-0.9-1.6l0.3-0.9l-1.4-1.3c-1.5,4.7-3.5,6.2-3.5,6.2s2.2-0.4,3.4-0.8C9.5,26.7,9.4,29.2,8,31.4z"/>
		<path fill="#FFFFFF" d="M29.8,14.6l-3.5,0.1c0,0.4-0.1,0.8-0.2,1.2c0.3,1.4,0.1,2.2,0.1,2.2c-0.6-1.3-1-1.7-1-1.7
			c-3.2-1.4-4.9,1.8-4.8,3.8c0.2,1.7,0.8,3.9,1.2,7.4c0.4,3-1.1,4.2-2.8,4.5c0,0-0.1,0-0.1,0c0,0,0,0,0,0c-0.3,0-0.6,0.1-0.9,0
			c0,0,0,0,0,0c0,0-0.1,0-0.1,0c-0.1,0-0.3,0-0.4,0C16,32,13,31.5,9.9,31.4c1.8-1.1,3.2-2.9,4-4.2c0,0.4,0.1,0.8,0.1,1.3
			c0,0.2,0,0.5,0,0.8l0,0.4l0.4,0c1.4,0.1,2.4-0.1,3.1-0.8c0.8-0.8,1.1-2.2,0.8-4.4c-0.1-1-0.5-2.4-0.8-3.7C17.3,20,17.1,19.4,17,19
			c-0.5-2.6,0.1-4.1,0.7-5c0.5-0.7,1.1-1.2,1.8-1.4c0,0,0,0,0,0l1.2-3.6h0.4l-0.8,3.5c0.2,0,0.4-0.1,0.6-0.1l1-3.2h0.4l-0.7,3.1
			c1.1-0.1,2.2-0.2,3.5-0.3c0.2,0.1,0.4,0.3,0.6,0.6l3.3-1l0.1,0.4L26,13.1c0,0.1,0.1,0.1,0.1,0.2l3.5-0.4l0.1,0.4l-3.4,0.7
			c0,0.1,0,0.1,0,0.2l3.5,0.1L29.8,14.6z M19.8,16.2c0.7-0.5,1.9-0.9,3-0.8c0.3,0,0.5-0.1,0.2-0.2c-0.8-0.4-2.8-0.3-3.5,0.2
			c-1.1,0.7-0.9,2.1-0.9,2.1C18.9,17.1,19.2,16.5,19.8,16.2z"/>
	</g>
</g>
<g>
	<path fill="#68737A" d="M70.8,9.6h-8.4v7.7h8.3v2.4h-8.3v9h9.9V31H59.1V7.2h11.7V9.6z"/>
	<path fill="#68737A" d="M74.8,31V6h3.1v25H74.8z"/>
	<path fill="#68737A" d="M90,16.7c-1.2-0.8-2.2-1.1-3.1-1.1c-1.1,0-2.5,0.5-2.5,1.9c0,1.4,1.6,2.1,3.5,3.6c2.2,1.7,3.6,3.1,3.6,5.4
		c0,2.9-2.8,4.8-5.9,4.8c-1.9,0-4.1-0.8-5.2-2.1l1.5-1.7c1,0.9,2.3,1.7,3.7,1.7c1.4,0,2.9-0.7,2.9-2.4c0-2-1.8-2.8-3.4-4
		c-1.9-1.4-3.6-2.5-3.6-4.9c0-2.7,2.6-4.4,5.6-4.4c1.7,0,3.3,0.7,4.2,1.6L90,16.7z"/>
	<path fill="#68737A" d="M93.2,22.3c0-5.5,4.1-8.7,8.4-8.7c4.3,0,8.4,3.2,8.4,8.7c0,5.3-3.4,9.1-8.4,9.1
		C96.5,31.4,93.2,27.5,93.2,22.3z M96.5,22.3c0,3.2,1.1,6.9,5.1,6.9c4,0,5.1-3.7,5.1-6.9c0-3.1-1.3-6.5-5.1-6.5
		C97.7,15.7,96.5,19.2,96.5,22.3z"/>
	<path fill="#68737A" d="M116,16.1c1.6-1.7,4-2.5,5.8-2.5c3.9,0,6,2.2,6,6.5V31h-3.1V20.7c0-3.2-1.4-4.9-4.1-4.9
		c-2.4,0-4.6,1.7-4.6,4.9V31h-3.1V14h3V16.1z"/>
	<path fill="#68737A" d="M148.9,10.9c-1.2-0.8-2.7-1.7-4.1-1.7c-2.4,0-3.7,1.4-3.7,3.2c0,1.7,1.5,3,4.5,5.2c3.3,2.4,5.2,4.5,5.2,7.6
		c0,3.8-3.6,6.2-7.4,6.2c-2.3,0-5-0.8-6.7-2.5l1.5-2c1.4,1,2.9,2.1,5.2,2.1c2.3,0,4.1-1.3,4.1-3.9c0-3-3.6-4.9-5.5-6.3
		c-2-1.5-4.2-3-4.2-6.3c0-3.2,3.1-5.6,6.8-5.6c2.5,0,4.5,0.9,5.9,2.4L148.9,10.9z"/>
	<path fill="#68737A" d="M154.1,27c1.2,0,2.2,1,2.2,2.2c0,1.1-1,2.2-2.1,2.2c-1.2,0-2.2-1-2.2-2.2C151.9,28,152.9,27,154.1,27z"/>
	<path fill="#68737A" d="M176.5,9.6H168v9h8.2V21H168v10h-3.3V7.2h11.7V9.6z"/>
	<path fill="#68737A" d="M179.9,31V6h3.1v25H179.9z"/>
	<path fill="#68737A" d="M185.8,22.3c0-5.5,4.1-8.7,8.4-8.7c4.3,0,8.4,3.2,8.4,8.7c0,5.3-3.4,9.1-8.4,9.1
		C189.2,31.4,185.8,27.5,185.8,22.3z M189.1,22.3c0,3.2,1.1,6.9,5.1,6.9c4,0,5.1-3.7,5.1-6.9c0-3.1-1.3-6.5-5.1-6.5
		C190.3,15.7,189.1,19.2,189.1,22.3z"/>
	<path fill="#68737A" d="M206.2,13.6c1.7,4.3,3.5,8.7,5.2,13.8h0.1c1.8-5.1,3.5-9.5,5.3-13.8l2.7,0.6l-8.7,19.7
		c-1.6,3.6-3.7,5.5-6.6,5.5h-1.5v-2.2h1.2c2.1,0,3.6-0.5,6-7.3l-6.7-15.5L206.2,13.6z"/>
	<path fill="#68737A" d="M233.4,28.3L233.4,28.3c-1.3,1.7-3.1,3.1-5.8,3.1c-4.6,0-7.5-3.7-7.5-9.1c0-4.4,3.2-8.7,7.8-8.7
		c2.3,0,4.4,0.9,5.4,2.5h0.1V6h3.1v25h-3.1V28.3z M233.4,21.9c0-3.2-1.7-6.2-5.1-6.2c-3.5,0-5,2.8-5,6.4c0,3.6,1.6,7.1,4.8,7.1
		C231.8,29.2,233.4,25.7,233.4,21.9z"/>
	<path fill="#68737A" d="M267.6,11.2c-1.1-0.9-3.7-2.1-6.2-2.1c-5.9,0-9.3,4.2-9.3,9.8c0,6,4.1,10,9.3,10c2.6,0,4.6-0.8,6-1.8l1.3,2
		c-1.6,1.1-4.4,2.2-7.5,2.2c-8.5,0-12.8-5.8-12.8-12.4c0-6,4.7-12.2,13.2-12.2c3.4,0,5.8,1.2,7.3,2.4L267.6,11.2z"/>
	<path fill="#68737A" d="M269.6,22.3c0-5.5,4.1-8.7,8.4-8.7c4.3,0,8.4,3.2,8.4,8.7c0,5.3-3.4,9.1-8.4,9.1
		C273,31.4,269.6,27.5,269.6,22.3z M272.9,22.3c0,3.2,1.1,6.9,5.1,6.9c4,0,5.1-3.7,5.1-6.9c0-3.1-1.3-6.5-5.1-6.5
		C274.2,15.7,272.9,19.2,272.9,22.3z"/>
	<path fill="#68737A" d="M289.4,31V6h3.1v25H289.4z"/>
	<path fill="#68737A" d="M296.6,31V6h3.1v25H296.6z"/>
	<path fill="#68737A" d="M305.8,22.7c0,3.4,2.4,6.5,5.7,6.5c1.6,0,3.5-0.6,4.7-1.5l0.9,1.7c-1.8,1.3-3.9,2-5.6,2
		c-5.3,0-8.8-3.3-8.8-9.2c0-5.9,4.2-8.6,8-8.6c5.2,0,6.9,4.7,6.6,9.1H305.8z M314.5,20.6c0-2.6-1.1-4.9-3.8-4.9
		c-3.3,0-4.5,2.7-4.7,4.9H314.5z"/>
	<path fill="#68737A" d="M335.5,30.3c0,6.5-4,9.1-8.6,9.1c-2.5,0-5-0.5-7-1.7l0.8-2c2.1,1.2,4,1.5,6.1,1.5c3.5,0,5.6-2.2,5.6-6.7
		v-2.3h-0.1c-1.2,1.7-3,3.1-5.7,3.1c-4.7,0-7.6-3.7-7.6-9.1c0-4.4,3.3-8.7,8.1-8.7c2,0,4.2,1,5.2,2.8h0.1V14h3.1V30.3z M332.4,21.9
		c0-3.2-1.7-6.2-5.1-6.2c-3.5,0-5,2.8-5,6.4c0,3.6,1.6,7.1,4.8,7.1C330.8,29.2,332.4,25.7,332.4,21.9z"/>
	<path fill="#68737A" d="M341.6,22.7c0,3.4,2.4,6.5,5.7,6.5c1.6,0,3.5-0.6,4.7-1.5l0.9,1.7c-1.8,1.3-3.9,2-5.6,2
		c-5.3,0-8.8-3.3-8.8-9.2c0-5.9,4.2-8.6,8-8.6c5.2,0,6.9,4.7,6.6,9.1H341.6z M350.2,20.6c0-2.6-1.1-4.9-3.8-4.9
		c-3.3,0-4.5,2.7-4.7,4.9H350.2z"/>
	<path fill="#68737A" d="M363.7,22.3c0-5.5,4.1-8.7,8.4-8.7c4.3,0,8.4,3.2,8.4,8.7c0,5.3-3.4,9.1-8.4,9.1
		C367,31.4,363.7,27.5,363.7,22.3z M367,22.3c0,3.2,1.1,6.9,5.1,6.9c4,0,5.1-3.7,5.1-6.9c0-3.1-1.3-6.5-5.1-6.5
		C368.2,15.7,367,19.2,367,22.3z"/>
	<path fill="#68737A" d="M383.6,31V15.7h-2.7V14h2.7v-2.1c0-4.5,3.1-5.9,5-5.9c0.9,0,1.9,0.2,2.7,0.7l-0.7,1.6
		c-0.5-0.1-1-0.2-1.7-0.2c-0.5,0-2.2,0.1-2.2,2.9V14h4.1v1.8h-4.1V31H383.6z"/>
	<path fill="#68737A" d="M427.7,31h-3.3V11.6h-0.1c-1,2.8-6.3,13.3-9.5,19.4h-1.3c-3-6.1-7.9-16.2-8.8-19.4h-0.1V31h-2.7V7.2h3.5
		c3.1,6.3,6.1,12.7,9.1,19.4c3.4-6.7,6.7-13,10-19.4h3.1V31z"/>
	<path fill="#68737A" d="M433.8,22.7c0,3.4,2.4,6.5,5.7,6.5c1.6,0,3.5-0.6,4.7-1.5l0.9,1.7c-1.8,1.3-3.9,2-5.6,2
		c-5.3,0-8.8-3.3-8.8-9.2c0-5.9,4.2-8.6,8-8.6c5.2,0,6.9,4.7,6.6,9.1H433.8z M442.5,20.6c0-2.6-1.1-4.9-3.8-4.9
		c-3.3,0-4.5,2.7-4.7,4.9H442.5z"/>
	<path fill="#68737A" d="M461.1,28.3L461.1,28.3c-1.3,1.7-3.1,3.1-5.8,3.1c-4.6,0-7.5-3.7-7.5-9.1c0-4.4,3.2-8.7,7.8-8.7
		c2.3,0,4.4,0.9,5.4,2.5h0.1V6h3.1v25h-3.1V28.3z M461.1,21.9c0-3.2-1.7-6.2-5.1-6.2c-3.5,0-5,2.8-5,6.4c0,3.6,1.6,7.1,4.8,7.1
		C459.5,29.2,461.1,25.7,461.1,21.9z"/>
	<path fill="#68737A" d="M467.8,8.4c0-0.8,0.7-1.8,1.9-1.8c1.2,0,1.9,1,1.9,1.8c0,0.9-0.4,2.1-1.9,2.1
		C468.3,10.4,467.8,9.3,467.8,8.4z M471.3,14v17h-3.1V14H471.3z"/>
	<path fill="#68737A" d="M488.5,29.6c-1.7,1.2-3.7,1.8-5.1,1.8c-8,0-9.1-6.6-9.1-8.9c0-4.2,2.8-8.9,9.2-8.9c1.7,0,3.3,0.4,4.5,1.4
		l-1,1.7c-1-0.5-2.2-0.9-3.5-0.9c-2.8,0-5.9,1.8-5.9,6.5c0,3.5,1.8,6.9,5.9,6.9c1.5,0,2.8-0.4,4.1-1.2L488.5,29.6z"/>
	<path fill="#68737A" d="M490.5,8.4c0-0.8,0.7-1.8,1.9-1.8c1.2,0,1.9,1,1.9,1.8c0,0.9-0.4,2.1-1.9,2.1C491,10.4,490.5,9.3,490.5,8.4
		z M494,14v17h-3.1V14H494z"/>
	<path fill="#68737A" d="M501.2,16.1c1.6-1.7,4-2.5,5.8-2.5c3.9,0,6,2.2,6,6.5V31h-3.1V20.7c0-3.2-1.4-4.9-4.1-4.9
		c-2.4,0-4.6,1.7-4.6,4.9V31h-3.1V14h3V16.1z"/>
	<path fill="#68737A" d="M518.8,22.7c0,3.4,2.4,6.5,5.7,6.5c1.6,0,3.5-0.6,4.7-1.5l0.9,1.7c-1.8,1.3-3.9,2-5.6,2
		c-5.3,0-8.8-3.3-8.8-9.2c0-5.9,4.2-8.6,8-8.6c5.2,0,6.9,4.7,6.6,9.1H518.8z M527.5,20.6c0-2.6-1.1-4.9-3.8-4.9
		c-3.3,0-4.5,2.7-4.7,4.9H527.5z"/>
</g>
<rect x="45.1" fill="#68737A" width="0.7" height="44.1"/>
</svg>
