<?xml version="1.0" encoding="utf-8"?>
<!-- Generator: Adobe Illustrator 20.1.0, SVG Export Plug-In . SVG Version: 6.00 Build 0)  -->
<svg version="1.1" id="Layer_1" xmlns="http://www.w3.org/2000/svg" xmlns:xlink="http://www.w3.org/1999/xlink" x="0px" y="0px"
	 viewBox="0 0 32 32" style="enable-background:new 0 0 32 32;" xml:space="preserve">
<style type="text/css">
	.st0{opacity:0.3;fill:none;}
	.st1{fill:#4D4D4D;}
</style>
<g>
	<rect x="0" class="st0" width="32" height="32"/>
	<rect x="0" class="st0" width="32" height="32"/>
	<path class="st1" d="M22.9,13c0,0.1,0,0.3,0,0.4c0,4-3,8.6-8.6,8.6c-1.7,0-3.3-0.5-4.6-1.4c0.2,0,0.5,0,0.7,0
		c1.4,0,2.7-0.5,3.8-1.3c-1.3,0-2.4-0.9-2.8-2.1c0.2,0,0.4,0.1,0.6,0.1c0.3,0,0.5,0,0.8-0.1c-1.4-0.3-2.4-1.5-2.4-3c0,0,0,0,0,0
		c0.4,0.2,0.9,0.4,1.4,0.4c-0.8-0.5-1.3-1.5-1.3-2.5c0-0.6,0.1-1.1,0.4-1.5c1.5,1.8,3.7,3,6.2,3.2c-0.1-0.2-0.1-0.5-0.1-0.7
		c0-1.7,1.4-3,3-3c0.9,0,1.7,0.4,2.2,1c0.7-0.1,1.3-0.4,1.9-0.7c-0.2,0.7-0.7,1.3-1.3,1.7c0.6-0.1,1.2-0.2,1.7-0.5
		C24,12,23.5,12.6,22.9,13z"/>
</g>
</svg>
