<?xml version="1.0" encoding="utf-8"?>
<!-- Generator: Adobe Illustrator 20.1.0, SVG Export Plug-In . SVG Version: 6.00 Build 0)  -->
<svg version="1.1" id="Layer_1" xmlns="http://www.w3.org/2000/svg" xmlns:xlink="http://www.w3.org/1999/xlink" x="0px" y="0px"
	 viewBox="0 0 32 32" style="enable-background:new 0 0 32 32;" xml:space="preserve">
<style type="text/css">
	.st0{opacity:0.3;fill:none;}
	.st1{fill:#4D4D4D;}
</style>
<g>
	<rect x="0" class="st0" width="32" height="32"/>
	<path id="Instagram_12_" class="st1" d="M20.6,10h-9.1c-0.8,0-1.4,0.6-1.4,1.4v9.2c0,0.8,0.6,1.4,1.4,1.4h9.1
		c0.8,0,1.4-0.6,1.4-1.4v-9.2C22,10.6,21.4,10,20.6,10z M18.6,11.9c0-0.2,0.2-0.4,0.4-0.4h1.1c0.2,0,0.4,0.2,0.4,0.4V13
		c0,0.2-0.2,0.4-0.4,0.4H19c-0.2,0-0.4-0.2-0.4-0.4V11.9z M16,13.7c1.3,0,2.3,1,2.3,2.3c0,1.3-1,2.3-2.3,2.3c-1.3,0-2.3-1-2.3-2.3
		C13.7,14.7,14.7,13.7,16,13.7z M20.9,20.5c0,0.2-0.2,0.4-0.4,0.4h-9c-0.2,0-0.4-0.2-0.4-0.4v-5.6h1.5c-0.2,0.3-0.3,0.8-0.3,1.1
		c0,2,1.6,3.6,3.7,3.6c2,0,3.7-1.6,3.7-3.6c0-0.3,0-0.8-0.3-1.1h1.5V20.5z"/>
</g>
</svg>
