<?xml version="1.0" encoding="utf-8"?>
<!-- Generator: Adobe Illustrator 20.1.0, SVG Export Plug-In . SVG Version: 6.00 Build 0)  -->
<svg version="1.1" id="Layer_1" xmlns="http://www.w3.org/2000/svg" xmlns:xlink="http://www.w3.org/1999/xlink" x="0px" y="0px"
	 viewBox="0 0 32 32" style="enable-background:new 0 0 32 32;" xml:space="preserve">
<style type="text/css">
	.st0{opacity:0.3;fill:none;}
	.st1{fill:#4D4D4D;}
</style>
<g>
	<rect x="0" class="st0" width="32" height="32"/>
	<path class="st1" d="M32,30.6l-7.4-7.4c2.1-2.5,3.4-5.7,3.4-9.2c0-7.7-6.3-14-14-14S0,6.3,0,14c0,7.7,6.3,14,14,14
		c3.5,0,6.7-1.3,9.2-3.4l7.4,7.4L32,30.6z M2,14C2,7.4,7.4,2,14,2s12,5.4,12,12c0,6.6-5.4,12-12,12S2,20.6,2,14z"/>
</g>
</svg>
