<?xml version="1.0" encoding="utf-8"?>
<!-- Generator: Adobe Illustrator 20.1.0, SVG Export Plug-In . SVG Version: 6.00 Build 0)  -->
<svg version="1.1" id="Layer_1" xmlns="http://www.w3.org/2000/svg" xmlns:xlink="http://www.w3.org/1999/xlink" x="0px" y="0px"
	 viewBox="0 0 32 32" style="enable-background:new 0 0 32 32;" xml:space="preserve">
<style type="text/css">
	.st0{opacity:0.3;fill:none;}
	.st1{fill-rule:evenodd;clip-rule:evenodd;fill:#4D4D4D;}
</style>
<g>
	<rect x="0" class="st0" width="32" height="32"/>
	<g>
		<rect x="10.3" y="13.3" class="st1" width="2.7" height="8.1"/>
		<path class="st1" d="M11.7,12.2L11.7,12.2c-0.9,0-1.5-0.6-1.5-1.4c0-0.8,0.6-1.4,1.5-1.4s1.5,0.6,1.5,1.4
			C13.2,11.6,12.6,12.2,11.7,12.2z"/>
		<path class="st1" d="M22.7,21.4H20v-4.3c0-1.1-0.4-1.8-1.4-1.8c-0.7,0-1.2,0.5-1.4,1c-0.1,0.2-0.1,0.4-0.1,0.7v4.5h-2.7
			c0,0,0-7.3,0-8.1h2.7v1.1c0.4-0.6,1-1.3,2.4-1.3c1.8,0,3.1,1.2,3.1,3.6V21.4z"/>
	</g>
</g>
</svg>
