<svg id="Layer_1" xmlns="http://www.w3.org/2000/svg" xmlns:xlink="http://www.w3.org/1999/xlink" viewBox="0 0 686.7 456"><style>.st0{fill:none;stroke:#098587;stroke-width:8;stroke-miterlimit:10;} .st1{fill:#FFFFFF;stroke:#F05454;stroke-width:8;stroke-miterlimit:10;} .st2{fill:#FFFFFF;stroke:#BCBEC0;stroke-width:0.5;stroke-miterlimit:10;} .st3{fill:#981E33;} .st4{display:none;} .st5{display:inline;opacity:0.39;}</style><g id="Layer_1_1_"><path class="st2" d="M157.7 417.6c.5 4.1-1.5 8.8-.6 12.8 2.5 11.1 12.8 7.3 20.4 9.5 7.6 2.2 15.1 7.5 23.6 7.4 6.6-.1 19.7-4.5 25.7-7.5 4.4-2.2 8.9-9.3 13.8-10.1 3.1-.6 7.2 2.5 10.3 2.5 1 0 2-.5 3-.7 3-.8 6-1.5 9-2.3 1-.2 2-.8 3-.8 5.2.1 15.7 1.4 20.7 2.8 6.7 1.8 12.5 13.1 13 13.1 2.8.1 6.3-5.5 9.1-6.1 4.1-.9 9.2 3.1 13.4 2.5 9.1-1.5 17.4-10.4 27.1-12.2 5.1-.9 6.2 2.9 10.3 4.5 5.1 1.9 19 .6 23.9-1.7 2.8-1.3 4.8-4.7 7.5-6.3 8.3-4.8 19.2-6.9 28.4-9.4 4.2-1.1 9.5.7 13.4-.7 3.3-1.2 5.6-7.8 9-8.5 2.1-.4 3.8 2 5.9 2.2 6.6.6 25.7-.8 32.6-2 6.2-1 8.1-6.8 13.3-8.5 10.1-3.2 43.5-.1 56-.2 43.5-.3 87-1 130.6-2.1-1.5-3.9-7.3-9.1-7.7-12.6-.3-2.7 4.3-5.9 4.2-8.6-.1-2.1-2.5-10.4-3.3-12.7-1.5-4.4-8.4-8-9.1-12.6-.4-2.4 2.5-6.1 2.7-8.6 1.3-13.6-2.2-29.4-2.5-43.2l-3.6-153.3c-.7-29.2-1.4-58.4-2.1-87.5-.2-9.7-.5-19.5-.7-29.2-.1-4.9-.3-14.6-.3-14.6l-.1-.2c-83.7 2-167.4 2.6-251.1 1.4-64.2-.9-128.3-2.6-192.5-5.3-4.9-.2-21-1.4-37.4-2.5.3.4.6.8 1 1.4.3.6 1.3 1.1 1 1.6-1.2 2.3-6.3 3.3-7.3 6-.7 1.9 5.3.4 5.5 2.4.2 2.2-2.1 4.2-1.7 6.3.7 3.8 9.2 12.4 9.2 13.2.2 2.2-2.8 4.5-1.7 6.3 3 5.1 11.9-20 14.2-1.5.2 1.5-1.8 2.7-1.6 4.2.9 5.7 8.9 10.9 5.4 17-2.9 5.1-4.2-2-8.2-2.2-.7 0-2.1-.8-2.1-.1.3 5.3 12 8.7 6.3 17.3l-4.2-.2c-.7-.5-.9-1.4-1.3-2.2-4-6.7-.7 3.1-2.9 2-1.8-.9-.7-7.8-2.4-8.6-6.3-2.8-7.3 8.8-6.3 12.5 1.7 5.9 8.4-1.8 10-1.7 3 .1-.2 7.2 2.4 8.6 3.4 1.9 10.3 4.5 12.4 9.1 5.2 11.7-13.4-.1-13.4 14.3 0 4.6 11.2 17.5 14.9 17.7-.4-1.1-.9-2.2-1.3-3.2-.7-1.8-15.4-17.8-4.8-20.4 5.9-1.5 5.8 22.4 13.2 26.1 1.7.9 4-.7 5.7.2 6.1 3.3-7.2 7.9-7.5 8.2-.1.1-9.6 22.4-9.6 23 .2 2.3 2.9 4.2 2.6 6.5-.3 2.7-6.2 5.6-6.1 8.3l4.6 4.5c1 2.5-3.1 2.9-3.5 4.1-.5 1.3 5.6 22.3 6.1 25.8 1.2 7.8-6.9 3.5-9 8.1l2.7 4.4c-2.9 7.4-7.6-6.7-11.5-1.6-2.8 3.8-9.7 27.2-18.6 25.8-4.2-.7-3.6-13.4-11.9-9.1-2 1.1-4 13.1-4.2 12.6-1-2.1 1.2-5.6-.6-7.1-1.8-1.4-6.4 2.5-6.4 2.5s5.4-6.4 6.3-10.3c.2-.7.8-2.1.1-2.1-2.4-.1-8.6 7.9-11.3 9-.2.1-.6.4-.6.3 2-7.2 6.8-4 10.5-9.3 2.2-3.2-.1-9.5 2.1-12.7 1.4-2.1 5.9-1.9 7.4-3.9s-.2-6.6 2.3-7c2.2-.3 3.6 8.2 3.4 9.4-.4 2.1-4.5 4.1-4.6 6.2l2.6 6.5c.5 1 .8 3.3 1.7 2.7 6.5-4.3 1.5-7.9 1.7-13.2.3-6.4 8.9-9.9 12.2-14.4.1-.1-3.6 7.3-4.8 10.4-1 2.5 6.2 6.9 8.4 6.8 7-.5-.4-6.1.4-8.5.4-1.2 2.4-.9 3-2 1-1.9-1.5-6.4-1.1-8.6.6-3 3.4-6.7 4.7-9.4.5-1 1.7-2 1.6-3.1-.2-1.6-3.6-.9-4.2-2.3-.9-2 2.3-5.6.3-6.4-1.1-.5-2 1.3-3 2-1.3.9-12.5 7.2-6.6 1.8.8-.7 2.2-1 2.3-2 .1-1.6-3.4-1-4.2-2.3l-1.1-6.4c1.3-7.4 4 9.4 7.8 1.4 2.2-4.6-3.2-8.4-3-11.9.1-1.6 2.6 2.3 4.2 2.3l3.1-4.1c4.9-2.8 3.9 1.5 8.7-1.7.2-.1-3.3-19.8-9.5-22.4-2.1-.9 3.6 5.8 1.1 10.4-2.1 3.7-3.9-1.5-5.3-1.3-3.3.5-10.1 20.5-12.6 22.9-4.1 4-12 3.4-16.2 7.7-5.3 5.5-9 14.5-12.6 21.1-1.1 1.9-4.1 3.8-3.2 5.8 3.2 6.8 14.5-1.8 17.8-3.8 1.6-1 5.7-3.3 5.6-1.4-.1 2.5-27.3 16.9-27.9 9.2-1.2-14.5 20-28.1 24.6-40 1.4-3.6 5.5-16.5 7.5-16.7 3.6-.3-2.1 12.7 1.6 15.7.8.7.9-2 1.3-2.9 2.7-6.1 6.6-10.4 9.6-15.7 7.9-14.1-3.3-15.9-8.6-30.2-1.3-3.5 8.8-9.3 1.6-10.1-16.9-1.7.7 17.7-7.8 20.4-1.4.4 1.1-2.8 1.6-4.2.7-1.7-7.9-10.7-9.4-11.1-7-1.9-1.4 8.5-4.7 8.3-2.1-.1-1.9-7.5-2.4-8.7-1.1-2.4-9.5-6-9.6-6.9-.3-2 6.5-3.9 4.5-4-3.5-.2-8.4 6.9-11.8 7.9-5.5 1.6-46.9-7-56.1-9.1-8.8-2-13.4-6.4-21.1-10.4-7-3.4-15-4.1-21.3-7.9-7.4-4.3-12.8-15-22.9-13.9-7.1.8 1.7 6.3 1.9 8.1 1.1 7.9-8.4 17.6-6 24.1s2.8 29.4 7.6 33.6c8.3 7.1 16 16.4 18.1 29 1.3 7.8-1.6 33.4 1.8 38.5.8 1.2 3.6-.9 4.3.3 1.9 3.2-3.4-.4 1 6.5 5.4 8.4 5.5 26.3 4.9 35.9-.1 1.2-1.3 3-.2 3.5 1.3.7 1.5-7 7.7-6.6 6.4.4 4.3 9 8 11.2 1.1.6 3.4-2.5 4.5-1.9.6.4-.7 1.7-.1 2.1l6.8.4c.5.2.8 1.2.4 1.5-3.3 3.7-15.9 3.7-18 8-.4.8 3.1 5.1 2.5 6.6-.5 1.2-2.5-.7-3.6-1.3-1.5-.8-5-13.4-6.1-7.9-.8 3.9 1.4 10.4 2 14.4 2.6 18.6 11.5 6.2 18.5 8.3 4.4 1.3 4.4 6.7 9.8 7 1.6.1-3.1 2.7-4.5 1.9-1.5-.8-.9-4.3-2.7-4.4-10.4-.4-4.4 11.9-5.1 12.7-1 1.3-3.5-3.9-4.3-2.4-.6 1.2 3.6 7.3 3.9 8.8 1.5 6.4-6.2 7.9-.9 14.9.5.7.9 1.2 1.3 1.6 3.5.7 3 3.2 0 0-.6-.1-1.2-.2-1.9-.2-5.3 0-2.5 4.8-8.6 4.4 0 0-.4-2.2-.5-3.2-.9-5.7.4-27.6-.4-28.9-4.5-7.5-3.5 23.6-3.5 24.2-.1 4.4.5 9.6-.4 13.9-.4 2-4 4.4-2.3 5.5 2.1 1.4 5-3.5 6.6-3.1 2 .4 4.2 5.8 6 8.1l.3.3c.2.2.3.4.5.5 4.1 2.9 7.4-3.8 10.6-3.6 1.2.1 1.6 2 2.8 2.3 2.2.6 5.2-4 6.1-3.9.3 0 4.5 4.6 8 6.3 3.7-.1 7.7-1.4 11-1 1.1-.1 2.1-.1 2.9.2 4.4 1.9 7.6 13.2 13.1 15.3 1-.2 2.1-.3 3.1-.5 1.3-1 2.5-2.3 3.8-1.6.3.1.4.5.4.8 3.5-.6 6.9-1 9.9.4 20 9.8 24.6 32.8 26.9 52.7"/><circle class="st3" cx="611.3" cy="195.4" r="4.9"/><circle class="st3" cx="641.7" cy="291.2" r="4.9"/><circle class="st3" cx="210.7" cy="185.2" r="4.9"/><circle class="st3" cx="399.7" cy="156.2" r="4.9"/><circle class="st3" cx="461.7" cy="242.2" r="4.9"/><circle class="st3" cx="535.7" cy="242.2" r="4.9"/><circle class="st3" cx="210.7" cy="118.2" r="4.9"/><circle class="st3" cx="242.7" cy="139.2" r="4.9"/><circle class="st3" cx="221.7" cy="103.2" r="4.9"/><circle class="st3" cx="203.7" cy="408.2" r="4.9"/><circle class="st3" cx="203.7" cy="430.2" r="4.9"/><circle class="st3" cx="490.6" cy="356.3" r="4.9"/><circle class="st3" cx="593.5" cy="191.4" r="4.9"/><circle class="st3" cx="606.5" cy="177.4" r="4.9"/><circle class="st3" cx="626.7" cy="213.6" r="4.9"/><circle class="st3" cx="642.7" cy="156.6" r="4.9"/><circle class="st3" cx="650.6" cy="184.2" r="4.9"/><circle class="st3" cx="633.8" cy="195" r="4.9"/><circle class="st3" cx="648.8" cy="203" r="4.9"/><path class="st3" d="M629.3 153.2l4.3 13.2h13.8l-11.2 8.1 4.3 13.2-11.2-8.2-11.2 8.2 4.3-13.2-11.2-8.1H625zM464.7 331.5l4.2 13.2h13.9l-11.2 8.1 4.3 13.2-11.2-8.2-11.2 8.2 4.2-13.2-11.2-8.1h13.9zM221.8 114.1l4.3 13.1h13.8l-11.2 8.2 4.3 13.1-11.2-8.1-11.2 8.1 4.3-13.1-11.2-8.2h13.8zM181.3 405.5l4.3 13.2h13.8l-11.2 8.1 4.3 13.2-11.2-8.1-11.2 8.1 4.3-13.2-11.2-8.1H177z"/></g><g id="Layer_2" class="st4"><g id="cfbshJ_1_" class="st5"><image width="1566" height="966" id="cfbshJ_2_" xlink:href="81B63726EA714702.png" transform="translate(-9.18 6.172) scale(.4583)" overflow="visible"/></g></g></svg>