<?xml version="1.0" encoding="utf-8"?>
<!-- Generator: Adobe Illustrator 20.0.0, SVG Export Plug-In . SVG Version: 6.00 Build 0)  -->
<!DOCTYPE svg PUBLIC "-//W3C//DTD SVG 1.1//EN" "http://www.w3.org/Graphics/SVG/1.1/DTD/svg11.dtd">
<svg version="1.1" id="Layer_1" xmlns="http://www.w3.org/2000/svg" xmlns:xlink="http://www.w3.org/1999/xlink" x="0px" y="0px"
	 viewBox="0 0 686.7 456" style="enable-background:new 0 0 686.7 456;" xml:space="preserve">
<style type="text/css">
	.st0{fill:none;stroke:#098587;stroke-width:8;stroke-miterlimit:10;}
	.st1{fill:#FFFFFF;stroke:#F05454;stroke-width:8;stroke-miterlimit:10;}
	.st2{fill:#FFFFFF;stroke:#BCBEC0;stroke-width:0.5;stroke-miterlimit:10;}
	.st3{fill:#981E33;}
	.st4{display:none;}
	.st5{display:inline;opacity:0.39;}
</style>
<g id="Layer_1_1_">
	<g>
		<path class="st0" d="M482.8-48.9"/>
	</g>
	<g>
		<path class="st0" d="M12.8-51.9"/>
	</g>
	<g>
		<path class="st0" d="M265.7-51.9"/>
	</g>
	<path class="st1" d="M105.2,222.1"/>
	<path class="st2" d="M157.7,417.6c0.5,4.1-1.5,8.8-0.6,12.8c2.5,11.1,12.8,7.3,20.4,9.5c7.6,2.2,15.1,7.5,23.6,7.4
		c6.6-0.1,19.7-4.5,25.7-7.5c4.4-2.2,8.9-9.3,13.8-10.1c3.1-0.6,7.2,2.5,10.3,2.5c1,0,2-0.5,3-0.7c3-0.8,6-1.5,9-2.3
		c1-0.2,2-0.8,3-0.8c5.2,0.1,15.7,1.4,20.7,2.8c6.7,1.8,12.5,13.1,13,13.1c2.8,0.1,6.3-5.5,9.1-6.1c4.1-0.9,9.2,3.1,13.4,2.5
		c9.1-1.5,17.4-10.4,27.1-12.2c5.1-0.9,6.2,2.9,10.3,4.5c5.1,1.9,19,0.6,23.9-1.7c2.8-1.3,4.8-4.7,7.5-6.3
		c8.3-4.8,19.2-6.9,28.4-9.4c4.2-1.1,9.5,0.7,13.4-0.7c3.3-1.2,5.6-7.8,9-8.5c2.1-0.4,3.8,2,5.9,2.2c6.6,0.6,25.7-0.8,32.6-2
		c6.2-1,8.1-6.8,13.3-8.5c10.1-3.2,43.5-0.1,56-0.2c43.5-0.3,87-1,130.6-2.1c-1.5-3.9-7.3-9.1-7.7-12.6c-0.3-2.7,4.3-5.9,4.2-8.6
		c-0.1-2.1-2.5-10.4-3.3-12.7c-1.5-4.4-8.4-8-9.1-12.6c-0.4-2.4,2.5-6.1,2.7-8.6c1.3-13.6-2.2-29.4-2.5-43.2
		c-1.2-51.1-2.4-102.2-3.6-153.3c-0.7-29.2-1.4-58.4-2.1-87.5c-0.2-9.7-0.5-19.5-0.7-29.2c-0.1-4.9-0.3-14.6-0.3-14.6l-0.1-0.2
		c-83.7,2-167.4,2.6-251.1,1.4c-64.2-0.9-128.3-2.6-192.5-5.3c-4.9-0.2-21-1.4-37.4-2.5c0.3,0.4,0.6,0.8,1,1.4
		c0.3,0.6,1.3,1.1,1,1.6c-1.2,2.3-6.3,3.3-7.3,6c-0.7,1.9,5.3,0.4,5.5,2.4c0.2,2.2-2.1,4.2-1.7,6.3c0.7,3.8,9.2,12.4,9.2,13.2
		c0.2,2.2-2.8,4.5-1.7,6.3c3,5.1,11.9-20,14.2-1.5c0.2,1.5-1.8,2.7-1.6,4.2c0.9,5.7,8.9,10.9,5.4,17c-2.9,5.1-4.2-2-8.2-2.2
		c-0.7,0-2.1-0.8-2.1-0.1c0.3,5.3,12,8.7,6.3,17.3l-4.2-0.2c-0.7-0.5-0.9-1.4-1.3-2.2c-4-6.7-0.7,3.1-2.9,2
		c-1.8-0.9-0.7-7.8-2.4-8.6c-6.3-2.8-7.3,8.8-6.3,12.5c1.7,5.9,8.4-1.8,10-1.7c3,0.1-0.2,7.2,2.4,8.6c3.4,1.9,10.3,4.5,12.4,9.1
		c5.2,11.7-13.4-0.1-13.4,14.3c0,4.6,11.2,17.5,14.9,17.7c-0.4-1.1-0.9-2.2-1.3-3.2c-0.7-1.8-15.4-17.8-4.8-20.4
		c5.9-1.5,5.8,22.4,13.2,26.1c1.7,0.9,4-0.7,5.7,0.2c6.1,3.3-7.2,7.9-7.5,8.2c-0.1,0.1-9.6,22.4-9.6,23c0.2,2.3,2.9,4.2,2.6,6.5
		c-0.3,2.7-6.2,5.6-6.1,8.3l4.6,4.5c1,2.5-3.1,2.9-3.5,4.1c-0.5,1.3,5.6,22.3,6.1,25.8c1.2,7.8-6.9,3.5-9,8.1l2.7,4.4
		c-2.9,7.4-7.6-6.7-11.5-1.6c-2.8,3.8-9.7,27.2-18.6,25.8c-4.2-0.7-3.6-13.4-11.9-9.1c-2,1.1-4,13.1-4.2,12.6
		c-1-2.1,1.2-5.6-0.6-7.1c-1.8-1.4-6.4,2.5-6.4,2.5s5.4-6.4,6.3-10.3c0.2-0.7,0.8-2.1,0.1-2.1c-2.4-0.1-8.6,7.9-11.3,9
		c-0.2,0.1-0.6,0.4-0.6,0.3c2-7.2,6.8-4,10.5-9.3c2.2-3.2-0.1-9.5,2.1-12.7c1.4-2.1,5.9-1.9,7.4-3.9s-0.2-6.6,2.3-7
		c2.2-0.3,3.6,8.2,3.4,9.4c-0.4,2.1-4.5,4.1-4.6,6.2l2.6,6.5c0.5,1,0.8,3.3,1.7,2.7c6.5-4.3,1.5-7.9,1.7-13.2
		c0.3-6.4,8.9-9.9,12.2-14.4c0.1-0.1-3.6,7.3-4.8,10.4c-1,2.5,6.2,6.9,8.4,6.8c7-0.5-0.4-6.1,0.4-8.5c0.4-1.2,2.4-0.9,3-2
		c1-1.9-1.5-6.4-1.1-8.6c0.6-3,3.4-6.7,4.7-9.4c0.5-1,1.7-2,1.6-3.1c-0.2-1.6-3.6-0.9-4.2-2.3c-0.9-2,2.3-5.6,0.3-6.4
		c-1.1-0.5-2,1.3-3,2c-1.3,0.9-12.5,7.2-6.6,1.8c0.8-0.7,2.2-1,2.3-2c0.1-1.6-3.4-1-4.2-2.3l-1.1-6.4c1.3-7.4,4,9.4,7.8,1.4
		c2.2-4.6-3.2-8.4-3-11.9c0.1-1.6,2.6,2.3,4.2,2.3l3.1-4.1c4.9-2.8,3.9,1.5,8.7-1.7c0.2-0.1-3.3-19.8-9.5-22.4
		c-2.1-0.9,3.6,5.8,1.1,10.4c-2.1,3.7-3.9-1.5-5.3-1.3c-3.3,0.5-10.1,20.5-12.6,22.9c-4.1,4-12,3.4-16.2,7.7
		c-5.3,5.5-9,14.5-12.6,21.1c-1.1,1.9-4.1,3.8-3.2,5.8c3.2,6.8,14.5-1.8,17.8-3.8c1.6-1,5.7-3.3,5.6-1.4
		c-0.1,2.5-27.3,16.9-27.9,9.2c-1.2-14.5,20-28.1,24.6-40c1.4-3.6,5.5-16.5,7.5-16.7c3.6-0.3-2.1,12.7,1.6,15.7
		c0.8,0.7,0.9-2,1.3-2.9c2.7-6.1,6.6-10.4,9.6-15.7c7.9-14.1-3.3-15.9-8.6-30.2c-1.3-3.5,8.8-9.3,1.6-10.1
		c-16.9-1.7,0.7,17.7-7.8,20.4c-1.4,0.4,1.1-2.8,1.6-4.2c0.7-1.7-7.9-10.7-9.4-11.1c-7-1.9-1.4,8.5-4.7,8.3
		c-2.1-0.1-1.9-7.5-2.4-8.7c-1.1-2.4-9.5-6-9.6-6.9c-0.3-2,6.5-3.9,4.5-4c-3.5-0.2-8.4,6.9-11.8,7.9c-5.5,1.6-46.9-7-56.1-9.1
		c-8.8-2-13.4-6.4-21.1-10.4c-7-3.4-15-4.1-21.3-7.9c-7.4-4.3-12.8-15-22.9-13.9c-7.1,0.8,1.7,6.3,1.9,8.1c1.1,7.9-8.4,17.6-6,24.1
		s2.8,29.4,7.6,33.6c8.3,7.1,16,16.4,18.1,29c1.3,7.8-1.6,33.4,1.8,38.5c0.8,1.2,3.6-0.9,4.3,0.3c1.9,3.2-3.4-0.4,1,6.5
		c5.4,8.4,5.5,26.3,4.9,35.9c-0.1,1.2-1.3,3-0.2,3.5c1.3,0.7,1.5-7,7.7-6.6c6.4,0.4,4.3,9,8,11.2c1.1,0.6,3.4-2.5,4.5-1.9
		c0.6,0.4-0.7,1.7-0.1,2.1l6.8,0.4c0.5,0.2,0.8,1.2,0.4,1.5c-3.3,3.7-15.9,3.7-18,8c-0.4,0.8,3.1,5.1,2.5,6.6
		c-0.5,1.2-2.5-0.7-3.6-1.3c-1.5-0.8-5-13.4-6.1-7.9c-0.8,3.9,1.4,10.4,2,14.4c2.6,18.6,11.5,6.2,18.5,8.3c4.4,1.3,4.4,6.7,9.8,7
		c1.6,0.1-3.1,2.7-4.5,1.9c-1.5-0.8-0.9-4.3-2.7-4.4C58,292.7,64,305,63.3,305.8c-1,1.3-3.5-3.9-4.3-2.4c-0.6,1.2,3.6,7.3,3.9,8.8
		c1.5,6.4-6.2,7.9-0.9,14.9c0.5,0.7,0.9,1.2,1.3,1.6c3.5,0.7,3,3.2,0,0c-0.6-0.1-1.2-0.2-1.9-0.2c-5.3,0-2.5,4.8-8.6,4.4
		c0,0-0.4-2.2-0.5-3.2c-0.9-5.7,0.4-27.6-0.4-28.9c-4.5-7.5-3.5,23.6-3.5,24.2c-0.1,4.4,0.5,9.6-0.4,13.9c-0.4,2-4,4.4-2.3,5.5
		c2.1,1.4,5-3.5,6.6-3.1c2,0.4,4.2,5.8,6,8.1c0.1,0.1,0.2,0.2,0.3,0.3c0.2,0.2,0.3,0.4,0.5,0.5c4.1,2.9,7.4-3.8,10.6-3.6
		c1.2,0.1,1.6,2,2.8,2.3c2.2,0.6,5.2-4,6.1-3.9c0.3,0,4.5,4.6,8,6.3c3.7-0.1,7.7-1.4,11-1c1.1-0.1,2.1-0.1,2.9,0.2
		c4.4,1.9,7.6,13.2,13.1,15.3c1-0.2,2.1-0.3,3.1-0.5c1.3-1,2.5-2.3,3.8-1.6c0.3,0.1,0.4,0.5,0.4,0.8c3.5-0.6,6.9-1,9.9,0.4
		C150.8,374.7,155.4,397.7,157.7,417.6"/>
	<circle class="st3" cx="611.3" cy="195.4" r="4.9"/>
	<circle class="st3" cx="641.7" cy="291.2" r="4.9"/>
	<circle class="st3" cx="210.7" cy="185.2" r="4.9"/>
	<circle class="st3" cx="399.7" cy="156.2" r="4.9"/>
	<circle class="st3" cx="461.7" cy="242.2" r="4.9"/>
	<circle class="st3" cx="535.7" cy="242.2" r="4.9"/>
	<circle class="st3" cx="210.7" cy="118.2" r="4.9"/>
	<circle class="st3" cx="242.7" cy="139.2" r="4.9"/>
	<circle class="st3" cx="221.7" cy="103.2" r="4.9"/>
	<circle class="st3" cx="203.7" cy="408.2" r="4.9"/>
	<circle class="st3" cx="203.7" cy="430.2" r="4.9"/>
	<circle class="st3" cx="490.6" cy="356.3" r="4.9"/>
	<circle class="st3" cx="593.5" cy="191.4" r="4.9"/>
	<circle class="st3" cx="606.5" cy="177.4" r="4.9"/>
	<circle class="st3" cx="626.7" cy="213.6" r="4.9"/>
	<circle class="st3" cx="642.7" cy="156.6" r="4.9"/>
	<circle class="st3" cx="650.6" cy="184.2" r="4.9"/>
	<circle class="st3" cx="633.8" cy="195" r="4.9"/>
	<circle class="st3" cx="648.8" cy="203" r="4.9"/>
	<polygon class="st3" points="629.3,153.2 633.6,166.4 647.4,166.4 636.2,174.5 640.5,187.7 629.3,179.5 618.1,187.7 622.4,174.5 
		611.2,166.4 625,166.4 	"/>
	<polygon class="st3" points="464.7,331.5 468.9,344.7 482.8,344.7 471.6,352.8 475.9,366 464.7,357.8 453.5,366 457.7,352.8 
		446.5,344.7 460.4,344.7 	"/>
	<polygon class="st3" points="221.8,114.1 226.1,127.2 239.9,127.2 228.7,135.4 233,148.5 221.8,140.4 210.6,148.5 214.9,135.4 
		203.7,127.2 217.5,127.2 	"/>
	<polygon class="st3" points="181.3,405.5 185.6,418.7 199.4,418.7 188.2,426.8 192.5,440 181.3,431.9 170.1,440 174.4,426.8 
		163.2,418.7 177,418.7 	"/>
</g>
<g id="Layer_2" class="st4">
	<g id="cfbshJ_1_" class="st5">
		
			<image style="overflow:visible;enable-background:new    ;" width="1566" height="966" id="cfbshJ_2_" xlink:href="81B63726EA714702.png"  transform="matrix(0.4583 0 0 0.4583 -9.1804 6.1722)">
		</image>
	</g>
</g>
</svg>
