<?xml version="1.0" encoding="utf-8"?>
<!-- Generator: Adobe Illustrator 20.0.0, SVG Export Plug-In . SVG Version: 6.00 Build 0)  -->
<!DOCTYPE svg PUBLIC "-//W3C//DTD SVG 1.1//EN" "http://www.w3.org/Graphics/SVG/1.1/DTD/svg11.dtd">
<svg version="1.1" id="Layer_1" xmlns="http://www.w3.org/2000/svg" xmlns:xlink="http://www.w3.org/1999/xlink" x="0px" y="0px"
	 viewBox="0 0 260.2 73.9" enable-background="new 0 0 260.2 73.9" xml:space="preserve">
<g>
	<g>
		<g>
			<path fill="#FFFFFF" d="M189.7,41.5c-2.7-2-4.6-3.2-4.6-5.1c0-2,1.4-2.8,3-2.8c2.2,0,3.2,1.5,3.4,3.4h0.7v-3.5
				c0-0.1,0-0.2-0.2-0.3c-1.1-0.4-2.6-0.5-3.8-0.5c-3.1,0-5.8,1.9-5.8,4.4c0,1.3,0.4,2.3,0.9,3h0c0,0,0,0,0,0c0.7,0.9,1.6,1.4,2.4,2
				c4.1,2.7,5,4.1,5,5.9c0.1,3.9-7.2,6-12-1.5l-2.5-3.8c2-0.8,3.6-2.6,3.6-5.2c0-3-2.6-4.3-5.2-4.3h-7.4v0.7
				c2.3,0.3,2.2,0.2,2.2,2.5v11.5c0,2.4,0.1,2.2-2.2,2.5v0.7h6.9v-0.7c-2.3-0.3-2.2-0.1-2.2-2.5v-4.7h2.4c3.1,5.1,3.8,7.4,5.4,7.9
				c0.3,0.1,4.4,1.4,7.2,1.4c3.2,0,6.7-1.8,6.7-5C193.5,45,192.6,43.6,189.7,41.5z M173.9,42.4h-2.1V34h2c1.9,0,3.4,1,3.4,3.8
				C177.1,40.7,176.1,42.4,173.9,42.4z"/>
			<path fill="#FFFFFF" d="M122.6,50.8c0,0,0,0-12.5-14.8v11.3c0,0.5,0.1,1,0.2,1.4c0.1,0.9,1,1.3,2.7,1.4v0.7h-6.3v-0.7
				c1.2-0.1,2.1-0.5,2.2-1.4c0.1-0.4,0.2-0.8,0.2-1.4V35.2c-0.7-0.9-1.5-1.7-3-1.7v-0.7h4.7c3.8,4.6,7.8,9.4,11.6,14h0.1V36.3
				c0-0.5-0.1-1-0.2-1.4c-0.1-0.9-1-1.3-2.7-1.4v-0.7h6.3v0.7c-1.2,0.1-2.1,0.5-2.2,1.4c-0.1,0.4-0.2,0.8-0.2,1.4v14.5H122.6z"/>
			<path fill="#FFFFFF" d="M132.7,47.6c0,2.4-0.1,2.3,2.2,2.5v0.7H128v-0.7c2.3-0.3,2.2-0.2,2.2-2.5V36c0-2.4,0.1-2.3-2.2-2.5v-0.7
				h6.9v0.7c-2.3,0.3-2.2,0.2-2.2,2.5V47.6z"/>
			<path fill="#FFFFFF" d="M165.3,46.2c-1.2,2.7-1,3.8-4.7,3.8c-2.3,0-3.3-0.2-3.3-2.4v-5.8h2.2c1.7,0,2.3,0.9,2.4,2.4h0.7v-5.5
				h-0.7c0,1.6-0.7,2.2-2.4,2.2h-2.2v-7.3h4.1c1.8,0,2.4,1.4,2.6,3.3h0.7v-4.1h-11.8h-5.1v0.7c1.7,0,2.4,0.8,1.8,2.4
				c-1.6,3.9-3.2,7.9-4.8,11.8c-1.3-3.9-2.8-8.3-3.8-11.3c-0.9-2.5,0.2-2.9,1.6-2.9v-0.7h-6.5v0.7c1.2,0,1.6,0.8,2.5,3.5
				c1.6,4.4,3.3,9.3,4.9,13.7h1.3c2.2-5.3,4.3-10.5,6.5-15.7c0.5-1.3,0.9-1.5,1.7-1.5c2.3,0.3,2,0.2,2,2.5v11.5c0,2.4,0.3,2.3-2,2.5
				v0.7h12.4l0.8-4.6H165.3z"/>
			<path fill="#FFFFFF" d="M199.6,47.6c0,2.4-0.1,2.3,2.2,2.5v0.7h-6.9v-0.7c2.3-0.3,2.2-0.2,2.2-2.5V36c0-2.4,0.1-2.3-2.2-2.5v-0.7
				h6.9v0.7c-2.3,0.3-2.2,0.2-2.2,2.5V47.6z"/>
			<path fill="#FFFFFF" d="M225.8,32.8v0.7c1.5,0,2.3,0.7,1.5,2.3l-3.5,6.4l-3.1-6.4c-0.6-1.3-0.8-2.3,1.1-2.3v-0.7h-4.3h-1.8h-11.9
				l-0.7,3.9h0.6c0.8-1.7,1.4-3.1,3.6-3.1h2.1v13.9c0,2.4,0.1,2.3-2.2,2.5v0.7h6.9v-0.7c-2.3-0.3-2.2-0.2-2.2-2.5V33.7h2.1
				c2.1,0,3.5,1.3,4.4,2.8l3.6,7.2v3.9c0,2.4,0.1,2.3-2.2,2.5v0.7h6.9v-0.7c-2.3-0.3-2.2-0.2-2.2-2.5v-2.9c0-0.6,0.1-1.4,0.3-1.9
				l4.3-7.8c0.7-1.2,1.4-1.6,2.1-1.6v-0.7H225.8z"/>
			<path fill="#FFFFFF" d="M106.1,32.8l-8.1,0v0.7c1.6,0.2,2.8,0.9,3,2.1c0.1,0.5,0.2,1.1,0.2,1.9v9.6c0,5.5-2.5,8.7-7.2,8.7
				c-5.1,0-6.7-3.7-6.7-8.5V37.2c0-3.2,0.1-3.3,3.2-3.6v-0.7h-9.3v0.7c3.1,0.4,3,0.4,3,3.6v10.3c0,6.2,2.3,10,9.6,10
				c4.4,0,9.2-2.8,9.2-10.2v-9.7c0-0.1,0-0.1,0-0.2c0-3,1.1-3.4,3.1-3.7L106.1,32.8z"/>
		</g>
		<g>
			<path fill="#FFFFFF" d="M64.6,20c0,2.4-0.1,2.2,2.2,2.5v0.7h-6.9v-0.7c2.3-0.3,2.2-0.2,2.2-2.5V8.5c0-2.4-1.1-2.2-3.4-2.5V5.3
				h8.1V6c-2.3,0.3-2.2,0.2-2.2,2.5v4.4h9V8.5c0-2.4,0.1-2.2-2.2-2.5V5.3h6.9V6C75.9,6.3,76,6.1,76,8.5V20c0,2.4-0.1,2.2,2.2,2.5
				v0.7h-6.9v-0.7c2.3-0.3,2.2-0.2,2.2-2.5v-6h-9V20z"/>
			<path fill="#FFFFFF" d="M85.7,20c0,2.4-0.1,2.2,2.2,2.5v0.7H81v-0.7c2.3-0.3,2.2-0.2,2.2-2.5V8.5c0-2.4,0.1-2.2-2.2-2.5V5.3h6.9
				V6c-2.3,0.3-2.2,0.2-2.2,2.5V20z"/>
			<path fill="#FFFFFF" d="M106.9,23.2c-4.1-4.8-8.3-9.8-12.4-14.7v11.3c0,0.5,0.1,1,0.2,1.4c0.1,0.9,1,1.3,2.7,1.4v0.7h-6.3v-0.7
				c1.2-0.1,2.1-0.5,2.2-1.4c0-0.4,0.2-0.8,0.2-1.4v-12c-0.7-0.9-1.5-1.7-3-1.7V5.3h4.6c3.8,4.6,7.8,9.3,11.6,13.9h0V8.8
				c0-0.5-0.1-1-0.2-1.4c-0.1-0.9-1-1.3-2.7-1.4V5.3h6.3V6c-1.2,0.1-2.1,0.5-2.2,1.4c0,0.4-0.1,0.8-0.1,1.4v14.4H106.9z"/>
			<path fill="#FFFFFF" d="M110.7,14.1c0-3.9,3.3-9.1,10.2-9.1c2.5,0,3.6,0.5,4.9,0.9c0.7,0.2,1,0.6,1,1v3.3h-0.7
				c-0.1-2-1.4-4.3-5.4-4.3c-5.3,0-7.1,3.7-7.1,8c0,4,2,8.7,7.2,8.7c3.2,0,3.5-1.2,3.5-3.2v-1.6c0-2.4,0.1-2.2-2.7-2.5v-0.7h7.4v0.7
				c-2.3,0.3-2.2,0.2-2.2,2.5v4.4c-1.6,0.6-3.8,1.2-6.1,1.2C115.4,23.5,110.7,21,110.7,14.1z"/>
			<path fill="#FFFFFF" d="M137.7,20c0,2.4-0.1,2.2,2.2,2.5v0.7H133v-0.7c2.3-0.3,2.2-0.2,2.2-2.5V6.1h-2.1c-2.2,0-2.7,1.4-3.6,3.1
				h-0.6l0.7-3.9h13.7l0.7,3.9h-0.6c-0.8-1.7-1.4-3.1-3.6-3.1h-2.1V20z"/>
			<path fill="#FFFFFF" d="M144,14.6c0-5.5,4.3-9.6,9.6-9.6c5.5,0,8.8,4.8,8.8,8.7c0,5.4-4,9.8-9.7,9.8
				C147.8,23.5,144,19.5,144,14.6z M159.4,14.5c0-6.1-3.3-8.6-6.4-8.6c-4.3,0-6.1,3.9-6.1,7.3c0,6.2,3.2,9.3,6.5,9.3
				C158.1,22.6,159.4,17.9,159.4,14.5z"/>
			<path fill="#FFFFFF" d="M178.8,23.2c-4.1-4.8-8.3-9.8-12.4-14.7v11.3c0,0.5,0.1,1,0.2,1.4c0.1,0.9,1,1.3,2.7,1.4v0.7h-6.3v-0.7
				c1.2-0.1,2.1-0.5,2.2-1.4c0.1-0.4,0.2-0.8,0.2-1.4v-12c-0.7-0.9-1.5-1.7-3-1.7V5.3h4.6c3.8,4.6,7.8,9.3,11.6,13.9h0V8.8
				c0-0.5-0.1-1-0.2-1.4c-0.1-0.9-1-1.3-2.7-1.4V5.3h6.3V6c-1.2,0.1-2.1,0.5-2.2,1.4c-0.1,0.4-0.2,0.8-0.2,1.4v14.4H178.8z"/>
			<path fill="#FFFFFF" d="M35.9,1.9L35.9,1.9l-6.9,0v0.9c2.7,0,3.1,1,2.4,3l-5.2,14.2h-0.3L19.7,2.2h-1.6l-6.5,17.8h-0.4L6.6,5.8
				C5.9,3.6,6.9,2.7,8.9,2.7V1.9H0.7v0.9c1.7,0,2.1,1.4,3.2,4.6l5.9,17.6h1.6l6.4-17.9l6.3,18h1.8c2.7-7.1,6.5-17.7,7.9-20.5
				c0.5-1.1,1.5-1.6,2.3-1.6V1.9H35.9z"/>
			<path fill="#FFFFFF" d="M54.2,13.6c-2.7-2-4.6-3.1-4.6-5c0-2,1.4-2.8,3-2.8c2.1,0,3.2,1.5,3.4,3.4h0.7V5.6c0-0.1,0-0.2-0.2-0.3
				c-1.1-0.4-2.6-0.5-3.8-0.5c-3.1,0-5.8,1.9-5.8,4.3c0,1.3,0.4,2.2,0.9,3h0c0,0,0,0,0,0c0.6,0.9,1.5,1.4,2.3,2c4,2.7,5,4.1,5,5.8
				c0,1.6-1.2,3.2-3.5,3.4c-2.3,0.2-5.3-0.9-6.5-4.2c-1.1-3.1-3.4-9.6-4.9-14.1h-1.5c-2.1,5.6-5,13.9-6.1,16.2
				c-0.4,0.8-1.1,1.3-1.8,1.3v0.7h1.1h3.5v-0.7c-1.1,0-1.6-0.8-1.3-1.8l1.2-3.4H42l1.1,3.3l0.8,2.5c0,0,4.6,1.2,7.5,1.2
				c3.2,0,6.5-1.8,6.5-5C58,17.1,57.1,15.7,54.2,13.6z M35.9,16.3l3-8.3H39l2.7,8.3H35.9z"/>
		</g>
		<g>
			<path fill="#FFFFFF" d="M199.6,6.5c-0.3-2.4-1.6-4.3-4.3-4.3c-2,0-4,1-4,3.6c0,2.4,2.4,3.8,5.8,6.4c3.6,2.7,4.8,4.5,4.8,7.3
				c0,4.1-4,6.4-8.1,6.4c-2.2,0-4.1-0.4-5.9-1.1c-0.1-0.1-0.2-0.2-0.2-0.5v-5h0.9c0.4,3.8,2.9,5.3,5.5,5.3c2.4,0,4.7-1.9,4.7-4.4
				c0-2.2-1.2-4.1-6.4-7.4c-1.9-1.2-4.2-2.6-4.2-6.3c0-3.1,3.2-5.5,7.2-5.5c1.5,0,3.4,0.2,4.8,0.7c0.2,0.1,0.2,0.2,0.2,0.4v4.5
				H199.6z"/>
			<path fill="#FFFFFF" d="M210.6,20c0,2.4-0.1,2.2,2.2,2.5v0.7H206v-0.7c2.3-0.3,2.2-0.2,2.2-2.5V6.1h-2.1c-2.2,0-2.7,1.4-3.6,3.1
				h-0.6l0.7-3.9h13.7l0.7,3.9h-0.6c-0.8-1.7-1.4-3.1-3.6-3.1h-2.1V20z"/>
			<path fill="#FFFFFF" d="M219.5,17.3l-1.2,3.4c-0.3,1,0.2,1.8,1.3,1.8v0.7H215v-0.7c0.7,0,1.4-0.4,1.8-1.3
				c1.1-2.2,4.1-10.6,6.2-16.2h1.4c1.7,5.1,4.3,13,5.2,15.3c0.6,1.4,1,2.2,2.1,2.2v0.7h-5.9v-0.7c1.6,0,1.8-0.8,1.4-2l-1.1-3.3
				H219.5z M225.7,16.3L223,8H223l-3,8.3H225.7z"/>
			<path fill="#FFFFFF" d="M238.7,20c0,2.4-0.1,2.2,2.2,2.5v0.7H234v-0.7c2.3-0.3,2.2-0.2,2.2-2.5V6.1h-2.1c-2.2,0-2.7,1.4-3.6,3.1
				H230l0.7-3.9h13.7l0.7,3.9h-0.6c-0.8-1.7-1.3-3.1-3.6-3.1h-2.1V20z"/>
			<path fill="#FFFFFF" d="M246.2,22.5c2.3-0.3,2-0.2,2-2.5V8.5c0-2.4,0.3-2.2-2-2.5V5.3h11.2v4.1h-0.7c-0.3-1.9-0.8-3.3-2.6-3.3
				h-3.5v7.3h2.1c1.6,0,2.3-0.6,2.3-2.2h0.7v5.4h-0.7c0-1.5-0.6-2.4-2.3-2.4h-2.1V20c0,2.2,1,2.4,3.3,2.4c3.7,0,3.5-1.1,4.7-3.8h0.7
				l-0.8,4.6h-12.3V22.5z"/>
		</g>
	</g>
	<g>
		<path fill="#FFFFFF" d="M65.2,66.3l-6.3,4.5l-6.3-4.5c-4.5-3.1-8.3-5.7-10.4-9.7c1.7,7.5,9,10.3,16.7,16.3c7.7-6,15-8.8,16.7-16.3
			C73.5,60.6,69.7,63.3,65.2,66.3z"/>
		<g>
			<path fill="#FFFFFF" d="M65.2,39c-1-0.5-3.2-0.3-4,0.2c-1.3,0.9-1.1,2.4-1,2.5c0.3-0.4,0.7-1.1,1.3-1.5c0.8-0.6,2.2-1,3.5-0.9
				C65.2,39.3,65.5,39.2,65.2,39z"/>
			<path fill="#FFFFFF" d="M41.3,29.7v0.8c0.5,0.2,0.6,0.3,0.7,1v18.1c0,10.1,8.2,12.7,16.9,19.5c8.7-6.8,16.9-9.4,16.9-19.5V31.3
				c0.1-0.6,0.2-0.7,0.7-0.8v-0.8H41.3z M47.6,58.1c1.7-2.6,1.8-5.5,1.8-5.5c-1.4,0.5-3.9,0.9-3.9,0.9s2.3-1.8,4.1-7.2l1.7,1.5
				l-0.3,1c0,0,0.8,1.1,1,1.9c0,0,1.1-2.1-0.1-4.4L51.5,47l-0.7-0.6l-1.1-1c0,0,0.5-1.8,2.1-4l0.2,0.2l1.3,1.5l-0.4,0.7
				c0,0,0.9,0.9,1.6,2.1c0,0,0.4-1.9-0.2-4l-0.6,0.5l-1.4-1.7c2-2,4-3.3,6.4-4.1c-0.1,0.2-0.3,0.3-0.4,0.5c-0.8,1.1-1.6,3.2-1,6.5
				c0.1,0.5,0.3,1.2,0.5,2c0.4,1.5,0.7,3.2,0.9,4.3c0.3,2.2,0.1,3.7-0.7,4.5c-0.5,0.5-1.4,0.8-2.5,0.7c0-0.2,0-0.4,0-0.5
				c0-1.6-0.3-2.8-0.3-2.8l-0.3-1.1l-0.5,1C53.6,53.3,51,57.3,47.6,58.1C47.6,58.1,47.6,58.1,47.6,58.1z M65,59.1
				c-0.6,0.1-2.7,0-2.7,0s1.4-0.6,2.2-2.9C65.1,57.7,65,59.1,65,59.1z M68.2,54.5c-4.1,0.6-4.8-8-4.8-8s1.4,4.4,4.3,4.2
				c3-0.2,2.2-4.8,2.2-4.8S72.8,53.9,68.2,54.5z M73.1,38.3l-4,0.2c0,0.5-0.1,1-0.2,1.4c0.4,1.7,0.1,2.5,0.1,2.5
				c-0.7-1.6-1.2-2-1.2-2c-3.7-1.7-5.8,2.1-5.6,4.5c0.2,2,0.9,4.6,1.5,8.7c0.5,3.5-1.3,5-3.3,5.3c0,0-0.1,0-0.1,0c0,0,0,0,0,0
				c-0.3,0-0.7,0.1-1,0c0,0,0,0,0,0c0,0-0.1,0-0.1,0c-0.2,0-0.3,0-0.5,0c-1.6-0.2-5.1-0.9-8.7-0.9c2.1-1.2,3.8-3.4,4.7-4.9
				c0.1,0.4,0.1,0.9,0.1,1.5c0,0.3,0,0.6,0,0.9l0,0.4l0.4,0c1.7,0.1,2.9-0.2,3.6-1c1-1,1.2-2.6,0.9-5.2c-0.1-1.1-0.5-2.8-0.9-4.4
				c-0.2-0.8-0.3-1.5-0.4-2c-0.6-3,0.1-4.8,0.8-5.8c0.6-0.8,1.3-1.4,2.2-1.6c0,0,0,0,0,0l1.4-4.2H63l-0.9,4.1c0.2,0,0.4-0.1,0.7-0.1
				l1.2-3.8h0.4l-0.8,3.6c1.2-0.2,2.6-0.3,4-0.4c0.2,0.1,0.5,0.4,0.7,0.8l3.9-1.2l0.1,0.4l-3.7,1.4c0,0.1,0.1,0.2,0.1,0.2l4.1-0.5
				l0.1,0.4L69,37.6c0,0.1,0,0.1,0,0.2l4.1,0.1L73.1,38.3z"/>
		</g>
	</g>
</g>
</svg>
